G04 EAGLE Gerber X2 export*
%TF.Part,Single*%
%TF.FileFunction,Copper,L2,Bot,Mixed*%
%TF.FilePolarity,Positive*%
%TF.GenerationSoftware,Autodesk,EAGLE,9.0.1*%
%TF.CreationDate,2018-06-21T21:19:49Z*%
G75*
%MOMM*%
%FSLAX34Y34*%
%LPD*%
%AMOC8*
5,1,8,0,0,1.08239X$1,22.5*%
G01*
%ADD10C,0.130000*%
%ADD11C,0.152400*%
%ADD12C,1.879600*%
%ADD13P,2.034460X8X22.500000*%
%ADD14C,1.473200*%
%ADD15C,0.756400*%

G36*
X148954Y10172D02*
X148954Y10172D01*
X149026Y10174D01*
X149075Y10192D01*
X149126Y10200D01*
X149189Y10234D01*
X149257Y10259D01*
X149297Y10291D01*
X149343Y10316D01*
X149393Y10368D01*
X149449Y10412D01*
X149477Y10456D01*
X149513Y10494D01*
X149543Y10559D01*
X149582Y10619D01*
X149594Y10670D01*
X149616Y10717D01*
X149624Y10788D01*
X149642Y10858D01*
X149638Y10910D01*
X149643Y10961D01*
X149628Y11032D01*
X149623Y11103D01*
X149602Y11151D01*
X149591Y11202D01*
X149554Y11263D01*
X149526Y11329D01*
X149482Y11385D01*
X149465Y11413D01*
X149447Y11428D01*
X149422Y11460D01*
X147866Y13016D01*
X144224Y19323D01*
X142339Y26358D01*
X142339Y33642D01*
X144224Y40677D01*
X147866Y46984D01*
X153016Y52134D01*
X159323Y55776D01*
X166358Y57661D01*
X173642Y57661D01*
X180677Y55776D01*
X186984Y52134D01*
X192134Y46984D01*
X195776Y40677D01*
X197661Y33642D01*
X197661Y26358D01*
X195776Y19323D01*
X192134Y13016D01*
X190578Y11460D01*
X190537Y11402D01*
X190487Y11350D01*
X190465Y11303D01*
X190435Y11261D01*
X190414Y11192D01*
X190384Y11127D01*
X190378Y11075D01*
X190363Y11025D01*
X190364Y10954D01*
X190357Y10883D01*
X190368Y10832D01*
X190369Y10780D01*
X190394Y10712D01*
X190409Y10642D01*
X190435Y10597D01*
X190453Y10549D01*
X190498Y10493D01*
X190535Y10431D01*
X190575Y10397D01*
X190607Y10357D01*
X190667Y10318D01*
X190722Y10271D01*
X190770Y10252D01*
X190814Y10224D01*
X190883Y10206D01*
X190950Y10179D01*
X191021Y10171D01*
X191053Y10163D01*
X191076Y10165D01*
X191117Y10161D01*
X848883Y10161D01*
X848954Y10172D01*
X849026Y10174D01*
X849075Y10192D01*
X849126Y10200D01*
X849189Y10234D01*
X849257Y10259D01*
X849297Y10291D01*
X849343Y10316D01*
X849393Y10368D01*
X849449Y10412D01*
X849477Y10456D01*
X849513Y10494D01*
X849543Y10559D01*
X849582Y10619D01*
X849594Y10670D01*
X849616Y10717D01*
X849624Y10788D01*
X849642Y10858D01*
X849638Y10910D01*
X849643Y10961D01*
X849628Y11032D01*
X849623Y11103D01*
X849602Y11151D01*
X849591Y11202D01*
X849554Y11263D01*
X849526Y11329D01*
X849482Y11385D01*
X849465Y11413D01*
X849447Y11428D01*
X849422Y11460D01*
X847866Y13016D01*
X844224Y19323D01*
X842339Y26358D01*
X842339Y33642D01*
X844224Y40677D01*
X847866Y46984D01*
X853016Y52134D01*
X859323Y55776D01*
X866358Y57661D01*
X873642Y57661D01*
X880677Y55776D01*
X886984Y52134D01*
X888540Y50578D01*
X888598Y50537D01*
X888650Y50487D01*
X888697Y50465D01*
X888739Y50435D01*
X888808Y50414D01*
X888873Y50384D01*
X888925Y50378D01*
X888975Y50363D01*
X889046Y50364D01*
X889117Y50357D01*
X889168Y50368D01*
X889220Y50369D01*
X889288Y50394D01*
X889358Y50409D01*
X889403Y50435D01*
X889451Y50453D01*
X889507Y50498D01*
X889569Y50535D01*
X889603Y50575D01*
X889643Y50607D01*
X889682Y50667D01*
X889729Y50722D01*
X889748Y50770D01*
X889776Y50814D01*
X889794Y50883D01*
X889821Y50950D01*
X889829Y51021D01*
X889837Y51053D01*
X889835Y51076D01*
X889839Y51117D01*
X889839Y448883D01*
X889828Y448954D01*
X889826Y449026D01*
X889808Y449075D01*
X889800Y449126D01*
X889766Y449189D01*
X889741Y449257D01*
X889709Y449297D01*
X889684Y449343D01*
X889632Y449393D01*
X889588Y449449D01*
X889544Y449477D01*
X889506Y449513D01*
X889441Y449543D01*
X889381Y449582D01*
X889330Y449594D01*
X889283Y449616D01*
X889212Y449624D01*
X889142Y449642D01*
X889090Y449638D01*
X889039Y449643D01*
X888968Y449628D01*
X888897Y449623D01*
X888849Y449602D01*
X888798Y449591D01*
X888737Y449554D01*
X888671Y449526D01*
X888615Y449482D01*
X888587Y449465D01*
X888572Y449447D01*
X888540Y449422D01*
X886984Y447866D01*
X880677Y444224D01*
X873642Y442339D01*
X866358Y442339D01*
X859323Y444224D01*
X853016Y447866D01*
X847866Y453016D01*
X844224Y459323D01*
X842339Y466358D01*
X842339Y473642D01*
X844224Y480677D01*
X847866Y486984D01*
X849422Y488540D01*
X849463Y488598D01*
X849513Y488650D01*
X849535Y488697D01*
X849565Y488739D01*
X849586Y488808D01*
X849616Y488873D01*
X849622Y488925D01*
X849637Y488975D01*
X849636Y489046D01*
X849643Y489117D01*
X849632Y489168D01*
X849631Y489220D01*
X849606Y489288D01*
X849591Y489358D01*
X849565Y489403D01*
X849547Y489451D01*
X849502Y489507D01*
X849465Y489569D01*
X849425Y489603D01*
X849393Y489643D01*
X849333Y489682D01*
X849278Y489729D01*
X849230Y489748D01*
X849186Y489776D01*
X849117Y489794D01*
X849050Y489821D01*
X848979Y489829D01*
X848947Y489837D01*
X848924Y489835D01*
X848883Y489839D01*
X191117Y489839D01*
X191046Y489828D01*
X190974Y489826D01*
X190925Y489808D01*
X190874Y489800D01*
X190811Y489766D01*
X190743Y489741D01*
X190703Y489709D01*
X190657Y489684D01*
X190607Y489632D01*
X190551Y489588D01*
X190523Y489544D01*
X190487Y489506D01*
X190457Y489441D01*
X190418Y489381D01*
X190406Y489330D01*
X190384Y489283D01*
X190376Y489212D01*
X190358Y489142D01*
X190362Y489090D01*
X190357Y489039D01*
X190372Y488968D01*
X190377Y488897D01*
X190398Y488849D01*
X190409Y488798D01*
X190446Y488737D01*
X190474Y488671D01*
X190518Y488615D01*
X190535Y488587D01*
X190553Y488572D01*
X190578Y488540D01*
X192134Y486984D01*
X195776Y480677D01*
X197661Y473642D01*
X197661Y466358D01*
X195776Y459323D01*
X192134Y453016D01*
X186984Y447866D01*
X180677Y444224D01*
X173642Y442339D01*
X166358Y442339D01*
X159323Y444224D01*
X153016Y447866D01*
X147866Y453016D01*
X144224Y459323D01*
X142339Y466358D01*
X142339Y473642D01*
X144224Y480677D01*
X147866Y486984D01*
X149422Y488540D01*
X149463Y488598D01*
X149513Y488650D01*
X149535Y488697D01*
X149565Y488739D01*
X149586Y488808D01*
X149616Y488873D01*
X149622Y488925D01*
X149637Y488975D01*
X149636Y489046D01*
X149643Y489117D01*
X149632Y489168D01*
X149631Y489220D01*
X149606Y489288D01*
X149591Y489358D01*
X149565Y489403D01*
X149547Y489451D01*
X149502Y489507D01*
X149465Y489569D01*
X149425Y489603D01*
X149393Y489643D01*
X149333Y489682D01*
X149278Y489729D01*
X149230Y489748D01*
X149186Y489776D01*
X149117Y489794D01*
X149050Y489821D01*
X148979Y489829D01*
X148947Y489837D01*
X148924Y489835D01*
X148883Y489839D01*
X128422Y489839D01*
X128402Y489836D01*
X128383Y489838D01*
X128281Y489816D01*
X128179Y489800D01*
X128162Y489790D01*
X128142Y489786D01*
X128053Y489733D01*
X127962Y489684D01*
X127948Y489670D01*
X127931Y489660D01*
X127864Y489581D01*
X127792Y489506D01*
X127784Y489488D01*
X127771Y489473D01*
X127732Y489377D01*
X127689Y489283D01*
X127687Y489263D01*
X127679Y489245D01*
X127661Y489078D01*
X127661Y10922D01*
X127664Y10902D01*
X127662Y10883D01*
X127684Y10781D01*
X127700Y10679D01*
X127710Y10662D01*
X127714Y10642D01*
X127767Y10553D01*
X127816Y10462D01*
X127830Y10448D01*
X127840Y10431D01*
X127919Y10364D01*
X127994Y10292D01*
X128012Y10284D01*
X128027Y10271D01*
X128123Y10232D01*
X128217Y10189D01*
X128237Y10187D01*
X128255Y10179D01*
X128422Y10161D01*
X148883Y10161D01*
X148954Y10172D01*
G37*
%LPC*%
G36*
X557032Y16509D02*
X557032Y16509D01*
X553764Y17863D01*
X551263Y20364D01*
X549909Y23632D01*
X549909Y27168D01*
X551263Y30436D01*
X553764Y32937D01*
X556043Y33881D01*
X556143Y33943D01*
X556243Y34003D01*
X556247Y34008D01*
X556252Y34011D01*
X556327Y34101D01*
X556403Y34190D01*
X556405Y34196D01*
X556409Y34200D01*
X556451Y34309D01*
X556495Y34418D01*
X556496Y34426D01*
X556497Y34430D01*
X556498Y34448D01*
X556513Y34585D01*
X556513Y159697D01*
X568990Y172174D01*
X569043Y172248D01*
X569103Y172318D01*
X569115Y172348D01*
X569134Y172374D01*
X569161Y172461D01*
X569195Y172546D01*
X569199Y172587D01*
X569206Y172609D01*
X569205Y172641D01*
X569213Y172713D01*
X569213Y227337D01*
X569199Y227428D01*
X569191Y227518D01*
X569179Y227548D01*
X569174Y227580D01*
X569131Y227661D01*
X569095Y227745D01*
X569069Y227777D01*
X569058Y227798D01*
X569035Y227820D01*
X568990Y227876D01*
X559663Y237203D01*
X558079Y238787D01*
X558063Y238799D01*
X558050Y238814D01*
X557963Y238870D01*
X557879Y238931D01*
X557860Y238937D01*
X557843Y238947D01*
X557743Y238973D01*
X557644Y239003D01*
X557624Y239003D01*
X557605Y239007D01*
X557502Y238999D01*
X557398Y238997D01*
X557379Y238990D01*
X557360Y238988D01*
X557265Y238948D01*
X557167Y238912D01*
X557152Y238900D01*
X557133Y238892D01*
X557002Y238787D01*
X553913Y235698D01*
X549898Y234035D01*
X545553Y234035D01*
X541503Y235713D01*
X541470Y235734D01*
X541386Y235794D01*
X541367Y235800D01*
X541350Y235810D01*
X541250Y235836D01*
X541151Y235866D01*
X541131Y235866D01*
X541112Y235871D01*
X541009Y235863D01*
X540905Y235860D01*
X540886Y235853D01*
X540867Y235851D01*
X540772Y235811D01*
X540674Y235775D01*
X540658Y235763D01*
X540640Y235755D01*
X540509Y235650D01*
X531172Y226313D01*
X490213Y226313D01*
X490122Y226299D01*
X490032Y226291D01*
X490002Y226279D01*
X489970Y226274D01*
X489889Y226231D01*
X489805Y226195D01*
X489773Y226169D01*
X489752Y226158D01*
X489730Y226135D01*
X489674Y226090D01*
X440914Y177330D01*
X440861Y177256D01*
X440801Y177186D01*
X440789Y177156D01*
X440770Y177130D01*
X440743Y177043D01*
X440709Y176958D01*
X440705Y176917D01*
X440698Y176895D01*
X440699Y176863D01*
X440691Y176791D01*
X440691Y176032D01*
X439337Y172764D01*
X436836Y170263D01*
X433568Y168909D01*
X430032Y168909D01*
X426764Y170263D01*
X424263Y172764D01*
X422909Y176032D01*
X422909Y179568D01*
X424263Y182836D01*
X426764Y185337D01*
X430032Y186691D01*
X433568Y186691D01*
X436836Y185337D01*
X439106Y183067D01*
X439123Y183055D01*
X439135Y183040D01*
X439222Y182984D01*
X439306Y182923D01*
X439325Y182918D01*
X439342Y182907D01*
X439442Y182881D01*
X439541Y182851D01*
X439561Y182852D01*
X439581Y182847D01*
X439683Y182855D01*
X439787Y182857D01*
X439806Y182864D01*
X439826Y182866D01*
X439921Y182906D01*
X440018Y182942D01*
X440034Y182954D01*
X440052Y182962D01*
X440183Y183067D01*
X475780Y218664D01*
X475822Y218722D01*
X475871Y218774D01*
X475893Y218821D01*
X475923Y218863D01*
X475944Y218932D01*
X475975Y218997D01*
X475980Y219049D01*
X475996Y219099D01*
X475994Y219170D01*
X476002Y219241D01*
X475991Y219292D01*
X475989Y219344D01*
X475965Y219412D01*
X475950Y219482D01*
X475923Y219526D01*
X475905Y219575D01*
X475860Y219631D01*
X475823Y219693D01*
X475784Y219727D01*
X475751Y219767D01*
X475691Y219806D01*
X475636Y219853D01*
X475588Y219872D01*
X475544Y219900D01*
X475475Y219918D01*
X475408Y219945D01*
X475337Y219953D01*
X475306Y219961D01*
X475282Y219959D01*
X475242Y219963D01*
X433063Y219963D01*
X432972Y219949D01*
X432882Y219941D01*
X432852Y219929D01*
X432820Y219924D01*
X432739Y219881D01*
X432655Y219845D01*
X432623Y219819D01*
X432602Y219808D01*
X432580Y219785D01*
X432524Y219740D01*
X390114Y177330D01*
X390061Y177256D01*
X390001Y177186D01*
X389989Y177156D01*
X389970Y177130D01*
X389943Y177043D01*
X389909Y176958D01*
X389905Y176917D01*
X389898Y176895D01*
X389899Y176863D01*
X389891Y176791D01*
X389891Y176032D01*
X388537Y172764D01*
X386036Y170263D01*
X382768Y168909D01*
X379232Y168909D01*
X375964Y170263D01*
X373463Y172764D01*
X372109Y176032D01*
X372109Y179568D01*
X373463Y182836D01*
X375964Y185337D01*
X379232Y186691D01*
X382768Y186691D01*
X386036Y185337D01*
X388306Y183067D01*
X388323Y183055D01*
X388335Y183040D01*
X388422Y182984D01*
X388506Y182923D01*
X388525Y182918D01*
X388542Y182907D01*
X388642Y182881D01*
X388741Y182851D01*
X388761Y182852D01*
X388781Y182847D01*
X388883Y182855D01*
X388987Y182857D01*
X389006Y182864D01*
X389026Y182866D01*
X389121Y182906D01*
X389218Y182942D01*
X389234Y182954D01*
X389252Y182962D01*
X389383Y183067D01*
X428155Y221839D01*
X428197Y221897D01*
X428246Y221949D01*
X428268Y221996D01*
X428298Y222038D01*
X428319Y222107D01*
X428350Y222172D01*
X428355Y222224D01*
X428371Y222274D01*
X428369Y222345D01*
X428377Y222416D01*
X428366Y222467D01*
X428364Y222519D01*
X428340Y222587D01*
X428325Y222657D01*
X428298Y222701D01*
X428280Y222750D01*
X428235Y222806D01*
X428198Y222868D01*
X428159Y222902D01*
X428126Y222942D01*
X428066Y222981D01*
X428011Y223028D01*
X427963Y223047D01*
X427919Y223075D01*
X427850Y223093D01*
X427783Y223120D01*
X427712Y223128D01*
X427681Y223136D01*
X427657Y223134D01*
X427617Y223138D01*
X410838Y223138D01*
X410747Y223124D01*
X410657Y223116D01*
X410627Y223104D01*
X410595Y223099D01*
X410514Y223056D01*
X410430Y223020D01*
X410398Y222994D01*
X410377Y222983D01*
X410355Y222960D01*
X410299Y222915D01*
X364714Y177330D01*
X364661Y177256D01*
X364601Y177186D01*
X364589Y177156D01*
X364570Y177130D01*
X364543Y177043D01*
X364509Y176958D01*
X364505Y176917D01*
X364498Y176895D01*
X364499Y176863D01*
X364491Y176791D01*
X364491Y176032D01*
X363137Y172764D01*
X360636Y170263D01*
X357368Y168909D01*
X353832Y168909D01*
X350564Y170263D01*
X348063Y172764D01*
X346709Y176032D01*
X346709Y179568D01*
X348063Y182836D01*
X350564Y185337D01*
X353832Y186691D01*
X357368Y186691D01*
X360636Y185337D01*
X362906Y183067D01*
X362923Y183055D01*
X362935Y183040D01*
X363022Y182984D01*
X363106Y182923D01*
X363125Y182918D01*
X363142Y182907D01*
X363242Y182881D01*
X363341Y182851D01*
X363361Y182852D01*
X363381Y182847D01*
X363483Y182855D01*
X363587Y182857D01*
X363606Y182864D01*
X363626Y182866D01*
X363721Y182906D01*
X363818Y182942D01*
X363834Y182954D01*
X363852Y182962D01*
X363983Y183067D01*
X405930Y225014D01*
X405972Y225072D01*
X406021Y225124D01*
X406043Y225171D01*
X406073Y225213D01*
X406094Y225282D01*
X406125Y225347D01*
X406130Y225399D01*
X406146Y225449D01*
X406144Y225520D01*
X406152Y225591D01*
X406141Y225642D01*
X406139Y225694D01*
X406115Y225762D01*
X406100Y225832D01*
X406073Y225876D01*
X406055Y225925D01*
X406010Y225981D01*
X405973Y226043D01*
X405934Y226077D01*
X405901Y226117D01*
X405841Y226156D01*
X405786Y226203D01*
X405738Y226222D01*
X405694Y226250D01*
X405625Y226268D01*
X405558Y226295D01*
X405487Y226303D01*
X405456Y226311D01*
X405432Y226309D01*
X405392Y226313D01*
X388613Y226313D01*
X388522Y226299D01*
X388432Y226291D01*
X388402Y226279D01*
X388370Y226274D01*
X388289Y226231D01*
X388205Y226195D01*
X388173Y226169D01*
X388152Y226158D01*
X388130Y226135D01*
X388074Y226090D01*
X339314Y177330D01*
X339261Y177256D01*
X339201Y177186D01*
X339189Y177156D01*
X339170Y177130D01*
X339143Y177043D01*
X339109Y176958D01*
X339105Y176917D01*
X339098Y176895D01*
X339099Y176863D01*
X339091Y176791D01*
X339091Y176032D01*
X337737Y172764D01*
X335236Y170263D01*
X331968Y168909D01*
X328432Y168909D01*
X325164Y170263D01*
X322663Y172764D01*
X321309Y176032D01*
X321309Y179568D01*
X322663Y182836D01*
X325164Y185337D01*
X328432Y186691D01*
X331968Y186691D01*
X335236Y185337D01*
X337506Y183067D01*
X337523Y183055D01*
X337535Y183040D01*
X337622Y182984D01*
X337706Y182923D01*
X337725Y182918D01*
X337742Y182907D01*
X337842Y182881D01*
X337941Y182851D01*
X337961Y182852D01*
X337981Y182847D01*
X338083Y182855D01*
X338187Y182857D01*
X338206Y182864D01*
X338226Y182866D01*
X338321Y182906D01*
X338418Y182942D01*
X338434Y182954D01*
X338452Y182962D01*
X338583Y183067D01*
X384840Y229324D01*
X386403Y230887D01*
X452762Y230887D01*
X452853Y230901D01*
X452943Y230909D01*
X452973Y230921D01*
X453005Y230926D01*
X453086Y230969D01*
X453170Y231005D01*
X453202Y231031D01*
X453223Y231042D01*
X453245Y231065D01*
X453301Y231110D01*
X454845Y232654D01*
X454898Y232728D01*
X454958Y232798D01*
X454970Y232828D01*
X454989Y232854D01*
X455016Y232941D01*
X455050Y233026D01*
X455054Y233067D01*
X455061Y233089D01*
X455060Y233121D01*
X455068Y233193D01*
X455068Y236615D01*
X455057Y236686D01*
X455055Y236758D01*
X455037Y236807D01*
X455029Y236858D01*
X454995Y236921D01*
X454970Y236989D01*
X454938Y237029D01*
X454913Y237076D01*
X454861Y237125D01*
X454817Y237181D01*
X454773Y237209D01*
X454735Y237245D01*
X454670Y237275D01*
X454610Y237314D01*
X454559Y237327D01*
X454512Y237349D01*
X454441Y237356D01*
X454371Y237374D01*
X454319Y237370D01*
X454268Y237376D01*
X454197Y237360D01*
X454126Y237355D01*
X454078Y237334D01*
X454027Y237323D01*
X453966Y237287D01*
X453900Y237258D01*
X453844Y237214D01*
X453816Y237197D01*
X453801Y237179D01*
X453769Y237154D01*
X452313Y235698D01*
X448298Y234035D01*
X443953Y234035D01*
X439938Y235698D01*
X436866Y238770D01*
X435203Y242785D01*
X435203Y247130D01*
X436866Y251145D01*
X439938Y254217D01*
X443953Y255880D01*
X448298Y255880D01*
X452313Y254217D01*
X452710Y253820D01*
X452726Y253809D01*
X452739Y253793D01*
X452826Y253737D01*
X452910Y253677D01*
X452929Y253671D01*
X452945Y253660D01*
X453046Y253635D01*
X453145Y253604D01*
X453165Y253605D01*
X453184Y253600D01*
X453287Y253608D01*
X453391Y253611D01*
X453409Y253618D01*
X453429Y253619D01*
X453524Y253660D01*
X453622Y253695D01*
X453637Y253708D01*
X453655Y253716D01*
X453786Y253820D01*
X459428Y259462D01*
X465461Y259462D01*
X465557Y259477D01*
X465654Y259487D01*
X465678Y259497D01*
X465704Y259501D01*
X465790Y259547D01*
X465879Y259587D01*
X465898Y259604D01*
X465921Y259617D01*
X465988Y259687D01*
X466060Y259753D01*
X466073Y259776D01*
X466091Y259795D01*
X466132Y259883D01*
X466179Y259969D01*
X466183Y259994D01*
X466194Y260018D01*
X466205Y260115D01*
X466222Y260211D01*
X466218Y260237D01*
X466221Y260262D01*
X466201Y260357D01*
X466186Y260454D01*
X466175Y260477D01*
X466169Y260503D01*
X466119Y260586D01*
X466075Y260673D01*
X466056Y260692D01*
X466043Y260714D01*
X465969Y260777D01*
X465899Y260845D01*
X465871Y260861D01*
X465856Y260874D01*
X465825Y260886D01*
X465752Y260926D01*
X465338Y261098D01*
X462266Y264170D01*
X460603Y268185D01*
X460603Y272530D01*
X461871Y275593D01*
X461879Y275627D01*
X461882Y275632D01*
X461883Y275641D01*
X461898Y275706D01*
X461927Y275820D01*
X461926Y275826D01*
X461928Y275832D01*
X461917Y275949D01*
X461907Y276065D01*
X461905Y276071D01*
X461904Y276077D01*
X461857Y276185D01*
X461811Y276291D01*
X461806Y276297D01*
X461804Y276302D01*
X461792Y276316D01*
X461706Y276422D01*
X454888Y283240D01*
X454814Y283293D01*
X454745Y283353D01*
X454715Y283365D01*
X454689Y283384D01*
X454602Y283411D01*
X454517Y283445D01*
X454476Y283449D01*
X454453Y283456D01*
X454421Y283455D01*
X454350Y283463D01*
X437571Y283463D01*
X437500Y283452D01*
X437429Y283450D01*
X437380Y283432D01*
X437328Y283424D01*
X437265Y283390D01*
X437198Y283365D01*
X437157Y283333D01*
X437111Y283308D01*
X437062Y283257D01*
X437005Y283212D01*
X436977Y283168D01*
X436941Y283130D01*
X436911Y283065D01*
X436872Y283005D01*
X436860Y282954D01*
X436838Y282907D01*
X436830Y282836D01*
X436812Y282766D01*
X436816Y282714D01*
X436811Y282663D01*
X436826Y282592D01*
X436832Y282521D01*
X436852Y282473D01*
X436863Y282422D01*
X436900Y282361D01*
X436928Y282295D01*
X436973Y282239D01*
X436989Y282211D01*
X437001Y282201D01*
X437003Y282197D01*
X437012Y282190D01*
X437033Y282164D01*
X439325Y279872D01*
X439419Y279804D01*
X439513Y279734D01*
X439519Y279732D01*
X439524Y279728D01*
X439635Y279694D01*
X439747Y279658D01*
X439753Y279658D01*
X439759Y279656D01*
X439876Y279659D01*
X439993Y279660D01*
X440000Y279662D01*
X440005Y279662D01*
X440023Y279669D01*
X440154Y279707D01*
X443953Y281280D01*
X448298Y281280D01*
X452313Y279617D01*
X455385Y276545D01*
X457048Y272530D01*
X457048Y268185D01*
X455385Y264170D01*
X452313Y261098D01*
X448298Y259435D01*
X443953Y259435D01*
X439938Y261098D01*
X436866Y264170D01*
X435203Y268185D01*
X435203Y272530D01*
X436471Y275593D01*
X436479Y275627D01*
X436482Y275632D01*
X436483Y275641D01*
X436498Y275706D01*
X436527Y275820D01*
X436526Y275826D01*
X436528Y275832D01*
X436517Y275949D01*
X436507Y276065D01*
X436505Y276071D01*
X436504Y276077D01*
X436457Y276185D01*
X436411Y276291D01*
X436406Y276297D01*
X436404Y276302D01*
X436392Y276315D01*
X436306Y276422D01*
X432663Y280065D01*
X432589Y280118D01*
X432520Y280178D01*
X432490Y280190D01*
X432464Y280209D01*
X432377Y280236D01*
X432292Y280270D01*
X432251Y280274D01*
X432228Y280281D01*
X432196Y280280D01*
X432125Y280288D01*
X428080Y280288D01*
X428009Y280277D01*
X427937Y280275D01*
X427888Y280257D01*
X427837Y280249D01*
X427774Y280215D01*
X427706Y280190D01*
X427666Y280158D01*
X427620Y280133D01*
X427570Y280081D01*
X427514Y280037D01*
X427486Y279993D01*
X427450Y279955D01*
X427420Y279890D01*
X427381Y279830D01*
X427369Y279779D01*
X427347Y279732D01*
X427339Y279661D01*
X427321Y279591D01*
X427325Y279539D01*
X427320Y279488D01*
X427335Y279417D01*
X427340Y279346D01*
X427361Y279298D01*
X427372Y279247D01*
X427409Y279186D01*
X427437Y279120D01*
X427482Y279064D01*
X427498Y279036D01*
X427516Y279021D01*
X427542Y278989D01*
X429985Y276545D01*
X431648Y272530D01*
X431648Y268185D01*
X429985Y264170D01*
X426913Y261098D01*
X422898Y259435D01*
X418553Y259435D01*
X414538Y261098D01*
X411466Y264170D01*
X409803Y268185D01*
X409803Y271381D01*
X409791Y271452D01*
X409789Y271524D01*
X409772Y271573D01*
X409763Y271624D01*
X409730Y271687D01*
X409705Y271755D01*
X409672Y271795D01*
X409648Y271841D01*
X409596Y271891D01*
X409551Y271947D01*
X409507Y271975D01*
X409470Y272011D01*
X409405Y272041D01*
X409344Y272080D01*
X409294Y272092D01*
X409247Y272114D01*
X409175Y272122D01*
X409106Y272140D01*
X409054Y272136D01*
X409002Y272141D01*
X408932Y272126D01*
X408861Y272121D01*
X408813Y272100D01*
X408762Y272089D01*
X408700Y272052D01*
X408634Y272024D01*
X408578Y271979D01*
X408551Y271963D01*
X408535Y271945D01*
X408503Y271919D01*
X320010Y183426D01*
X319957Y183352D01*
X319897Y183282D01*
X319885Y183252D01*
X319866Y183226D01*
X319839Y183139D01*
X319805Y183054D01*
X319801Y183013D01*
X319794Y182991D01*
X319795Y182959D01*
X319787Y182887D01*
X319787Y170503D01*
X312097Y162813D01*
X246703Y162813D01*
X245140Y164376D01*
X236983Y172533D01*
X236967Y172545D01*
X236954Y172560D01*
X236867Y172616D01*
X236783Y172677D01*
X236764Y172682D01*
X236747Y172693D01*
X236647Y172719D01*
X236548Y172749D01*
X236528Y172748D01*
X236509Y172753D01*
X236406Y172745D01*
X236302Y172743D01*
X236284Y172736D01*
X236264Y172734D01*
X236169Y172694D01*
X236071Y172658D01*
X236056Y172646D01*
X236037Y172638D01*
X235906Y172533D01*
X233636Y170263D01*
X230368Y168909D01*
X226832Y168909D01*
X223564Y170263D01*
X221063Y172764D01*
X219709Y176032D01*
X219709Y179568D01*
X221063Y182836D01*
X223564Y185337D01*
X226832Y186691D01*
X230368Y186691D01*
X233636Y185337D01*
X236137Y182836D01*
X237491Y179568D01*
X237491Y178809D01*
X237505Y178718D01*
X237513Y178628D01*
X237525Y178598D01*
X237530Y178566D01*
X237573Y178485D01*
X237609Y178401D01*
X237635Y178369D01*
X237646Y178348D01*
X237669Y178326D01*
X237714Y178270D01*
X248374Y167610D01*
X248448Y167557D01*
X248518Y167497D01*
X248548Y167485D01*
X248574Y167466D01*
X248661Y167439D01*
X248746Y167405D01*
X248787Y167401D01*
X248809Y167394D01*
X248841Y167395D01*
X248913Y167387D01*
X309887Y167387D01*
X309978Y167401D01*
X310068Y167409D01*
X310098Y167421D01*
X310130Y167426D01*
X310211Y167469D01*
X310295Y167505D01*
X310327Y167531D01*
X310348Y167542D01*
X310370Y167565D01*
X310426Y167610D01*
X314990Y172174D01*
X315043Y172248D01*
X315103Y172318D01*
X315115Y172348D01*
X315134Y172374D01*
X315161Y172461D01*
X315195Y172546D01*
X315199Y172587D01*
X315206Y172609D01*
X315205Y172641D01*
X315213Y172713D01*
X315213Y183142D01*
X315202Y183212D01*
X315200Y183284D01*
X315182Y183333D01*
X315174Y183384D01*
X315140Y183448D01*
X315115Y183515D01*
X315083Y183556D01*
X315058Y183602D01*
X315007Y183651D01*
X314962Y183707D01*
X314918Y183735D01*
X314880Y183771D01*
X314815Y183801D01*
X314755Y183840D01*
X314704Y183853D01*
X314657Y183875D01*
X314586Y183883D01*
X314516Y183900D01*
X314464Y183896D01*
X314413Y183902D01*
X314342Y183887D01*
X314271Y183881D01*
X314223Y183861D01*
X314172Y183850D01*
X314111Y183813D01*
X314045Y183785D01*
X313989Y183740D01*
X313961Y183723D01*
X313946Y183706D01*
X313914Y183680D01*
X312912Y182678D01*
X312843Y182583D01*
X312774Y182489D01*
X312772Y182483D01*
X312768Y182478D01*
X312734Y182366D01*
X312697Y182255D01*
X312697Y182249D01*
X312696Y182243D01*
X312699Y182126D01*
X312700Y182009D01*
X312702Y182002D01*
X312702Y181997D01*
X312708Y181979D01*
X312746Y181848D01*
X313691Y179568D01*
X313691Y176032D01*
X312337Y172764D01*
X309836Y170263D01*
X306568Y168909D01*
X303032Y168909D01*
X299764Y170263D01*
X297263Y172764D01*
X295909Y176032D01*
X295909Y179568D01*
X297263Y182836D01*
X299764Y185337D01*
X303032Y186691D01*
X306568Y186691D01*
X308848Y185746D01*
X308962Y185720D01*
X309075Y185691D01*
X309081Y185692D01*
X309087Y185690D01*
X309204Y185701D01*
X309320Y185710D01*
X309326Y185713D01*
X309332Y185713D01*
X309440Y185761D01*
X309547Y185807D01*
X309552Y185811D01*
X309557Y185813D01*
X309571Y185826D01*
X309678Y185912D01*
X411803Y288037D01*
X456560Y288037D01*
X464725Y279872D01*
X464819Y279804D01*
X464913Y279734D01*
X464919Y279732D01*
X464924Y279728D01*
X465035Y279694D01*
X465147Y279658D01*
X465153Y279658D01*
X465159Y279656D01*
X465276Y279659D01*
X465393Y279660D01*
X465400Y279662D01*
X465405Y279662D01*
X465423Y279669D01*
X465554Y279707D01*
X469353Y281280D01*
X473698Y281280D01*
X477713Y279617D01*
X480785Y276545D01*
X480957Y276130D01*
X480982Y276091D01*
X480997Y276048D01*
X481046Y275987D01*
X481087Y275921D01*
X481122Y275891D01*
X481151Y275856D01*
X481216Y275814D01*
X481276Y275764D01*
X481319Y275747D01*
X481358Y275723D01*
X481433Y275704D01*
X481506Y275676D01*
X481552Y275674D01*
X481596Y275663D01*
X481674Y275669D01*
X481752Y275665D01*
X481796Y275678D01*
X481842Y275682D01*
X481913Y275712D01*
X481988Y275734D01*
X482026Y275760D01*
X482068Y275778D01*
X482175Y275863D01*
X482190Y275874D01*
X482193Y275878D01*
X482199Y275883D01*
X483463Y277147D01*
X497528Y291212D01*
X559617Y291212D01*
X559707Y291226D01*
X559798Y291234D01*
X559827Y291246D01*
X559859Y291251D01*
X559940Y291294D01*
X560024Y291330D01*
X560056Y291356D01*
X560077Y291367D01*
X560099Y291390D01*
X560155Y291435D01*
X562952Y294232D01*
X564297Y294232D01*
X564367Y294243D01*
X564439Y294245D01*
X564488Y294263D01*
X564539Y294271D01*
X564603Y294305D01*
X564670Y294330D01*
X564711Y294362D01*
X564757Y294387D01*
X564806Y294439D01*
X564862Y294483D01*
X564890Y294527D01*
X564926Y294565D01*
X564956Y294630D01*
X564995Y294690D01*
X565008Y294741D01*
X565030Y294788D01*
X565038Y294859D01*
X565055Y294929D01*
X565051Y294981D01*
X565057Y295032D01*
X565042Y295103D01*
X565036Y295174D01*
X565016Y295222D01*
X565005Y295273D01*
X564968Y295334D01*
X564940Y295400D01*
X564895Y295456D01*
X564878Y295484D01*
X564861Y295499D01*
X564835Y295531D01*
X421551Y438815D01*
X421477Y438868D01*
X421407Y438928D01*
X421377Y438940D01*
X421351Y438959D01*
X421264Y438986D01*
X421179Y439020D01*
X421138Y439024D01*
X421116Y439031D01*
X421084Y439030D01*
X421012Y439038D01*
X359415Y439038D01*
X350339Y448115D01*
X350322Y448127D01*
X350310Y448142D01*
X350223Y448198D01*
X350139Y448259D01*
X350120Y448264D01*
X350103Y448275D01*
X350003Y448300D01*
X349904Y448331D01*
X349884Y448330D01*
X349865Y448335D01*
X349762Y448327D01*
X349658Y448325D01*
X349639Y448318D01*
X349619Y448316D01*
X349524Y448276D01*
X349427Y448240D01*
X349411Y448228D01*
X349393Y448220D01*
X349262Y448115D01*
X349087Y447940D01*
X345073Y446277D01*
X340727Y446277D01*
X336713Y447940D01*
X333640Y451013D01*
X331977Y455027D01*
X331977Y459373D01*
X333640Y463387D01*
X336713Y466460D01*
X340727Y468123D01*
X345073Y468123D01*
X349087Y466460D01*
X352160Y463387D01*
X353823Y459373D01*
X353823Y455027D01*
X352867Y452719D01*
X352857Y452679D01*
X352845Y452652D01*
X352839Y452602D01*
X352811Y452492D01*
X352812Y452486D01*
X352811Y452480D01*
X352822Y452363D01*
X352831Y452247D01*
X352833Y452241D01*
X352834Y452235D01*
X352881Y452127D01*
X352927Y452021D01*
X352932Y452015D01*
X352934Y452010D01*
X352946Y451996D01*
X353032Y451890D01*
X361087Y443835D01*
X361161Y443782D01*
X361230Y443722D01*
X361260Y443710D01*
X361286Y443691D01*
X361373Y443664D01*
X361458Y443630D01*
X361499Y443626D01*
X361522Y443619D01*
X361554Y443620D01*
X361625Y443612D01*
X423222Y443612D01*
X588074Y278760D01*
X588074Y277191D01*
X588086Y277120D01*
X588088Y277049D01*
X588106Y277000D01*
X588114Y276948D01*
X588148Y276885D01*
X588172Y276818D01*
X588205Y276777D01*
X588229Y276731D01*
X588281Y276682D01*
X588326Y276626D01*
X588370Y276597D01*
X588407Y276562D01*
X588472Y276531D01*
X588533Y276493D01*
X588583Y276480D01*
X588630Y276458D01*
X588702Y276450D01*
X588771Y276433D01*
X588823Y276437D01*
X588875Y276431D01*
X588945Y276446D01*
X589016Y276452D01*
X589064Y276472D01*
X589115Y276483D01*
X589177Y276520D01*
X589243Y276548D01*
X589299Y276593D01*
X589326Y276609D01*
X589342Y276627D01*
X589374Y276653D01*
X592338Y279617D01*
X596353Y281280D01*
X600698Y281280D01*
X604713Y279617D01*
X607785Y276545D01*
X608749Y274219D01*
X608810Y274120D01*
X608870Y274020D01*
X608875Y274015D01*
X608878Y274010D01*
X608968Y273936D01*
X609057Y273860D01*
X609063Y273857D01*
X609068Y273853D01*
X609176Y273812D01*
X609285Y273768D01*
X609293Y273767D01*
X609297Y273765D01*
X609316Y273764D01*
X609452Y273749D01*
X637535Y273749D01*
X639097Y272187D01*
X728217Y183067D01*
X728233Y183055D01*
X728246Y183040D01*
X728333Y182984D01*
X728417Y182923D01*
X728436Y182918D01*
X728453Y182907D01*
X728553Y182881D01*
X728652Y182851D01*
X728672Y182852D01*
X728691Y182847D01*
X728794Y182855D01*
X728898Y182857D01*
X728916Y182864D01*
X728936Y182866D01*
X729031Y182906D01*
X729129Y182942D01*
X729144Y182954D01*
X729163Y182962D01*
X729294Y183067D01*
X731564Y185337D01*
X734832Y186691D01*
X738368Y186691D01*
X741636Y185337D01*
X744137Y182836D01*
X745491Y179568D01*
X745491Y176032D01*
X744137Y172764D01*
X741636Y170263D01*
X738368Y168909D01*
X734832Y168909D01*
X731564Y170263D01*
X729063Y172764D01*
X727709Y176032D01*
X727709Y176792D01*
X727695Y176882D01*
X727687Y176973D01*
X727675Y177002D01*
X727670Y177034D01*
X727627Y177115D01*
X727591Y177199D01*
X727565Y177231D01*
X727554Y177252D01*
X727531Y177274D01*
X727486Y177330D01*
X635863Y268953D01*
X635789Y269006D01*
X635720Y269065D01*
X635690Y269078D01*
X635664Y269096D01*
X635577Y269123D01*
X635492Y269157D01*
X635451Y269162D01*
X635428Y269169D01*
X635396Y269168D01*
X635325Y269176D01*
X610210Y269176D01*
X610190Y269173D01*
X610170Y269175D01*
X610069Y269153D01*
X609967Y269136D01*
X609949Y269127D01*
X609930Y269122D01*
X609841Y269069D01*
X609749Y269021D01*
X609736Y269007D01*
X609719Y268996D01*
X609651Y268918D01*
X609580Y268843D01*
X609572Y268825D01*
X609559Y268809D01*
X609520Y268713D01*
X609476Y268620D01*
X609474Y268600D01*
X609467Y268581D01*
X609448Y268415D01*
X609448Y268185D01*
X607785Y264170D01*
X604713Y261098D01*
X600698Y259435D01*
X596353Y259435D01*
X592338Y261098D01*
X589374Y264062D01*
X589316Y264104D01*
X589264Y264154D01*
X589216Y264176D01*
X589174Y264206D01*
X589106Y264227D01*
X589040Y264257D01*
X588989Y264263D01*
X588939Y264278D01*
X588867Y264276D01*
X588796Y264284D01*
X588745Y264273D01*
X588693Y264272D01*
X588626Y264247D01*
X588556Y264232D01*
X588511Y264205D01*
X588462Y264187D01*
X588406Y264143D01*
X588345Y264106D01*
X588311Y264066D01*
X588270Y264034D01*
X588231Y263973D01*
X588185Y263919D01*
X588165Y263871D01*
X588137Y263827D01*
X588120Y263757D01*
X588093Y263691D01*
X588085Y263619D01*
X588077Y263588D01*
X588079Y263565D01*
X588074Y263524D01*
X588074Y251791D01*
X588086Y251720D01*
X588088Y251649D01*
X588106Y251600D01*
X588114Y251548D01*
X588148Y251485D01*
X588172Y251418D01*
X588205Y251377D01*
X588229Y251331D01*
X588281Y251282D01*
X588326Y251226D01*
X588370Y251197D01*
X588407Y251162D01*
X588472Y251131D01*
X588533Y251093D01*
X588583Y251080D01*
X588630Y251058D01*
X588702Y251050D01*
X588771Y251033D01*
X588823Y251037D01*
X588875Y251031D01*
X588945Y251046D01*
X589016Y251052D01*
X589064Y251072D01*
X589115Y251083D01*
X589177Y251120D01*
X589243Y251148D01*
X589299Y251193D01*
X589326Y251209D01*
X589342Y251227D01*
X589374Y251253D01*
X592338Y254217D01*
X596353Y255880D01*
X600698Y255880D01*
X604713Y254217D01*
X607785Y251145D01*
X608749Y248819D01*
X608810Y248720D01*
X608870Y248620D01*
X608875Y248615D01*
X608878Y248610D01*
X608968Y248536D01*
X609057Y248460D01*
X609063Y248457D01*
X609068Y248453D01*
X609176Y248412D01*
X609285Y248368D01*
X609293Y248367D01*
X609297Y248365D01*
X609316Y248364D01*
X609452Y248349D01*
X637535Y248349D01*
X639097Y246787D01*
X702817Y183067D01*
X702833Y183055D01*
X702846Y183040D01*
X702933Y182984D01*
X703017Y182923D01*
X703036Y182918D01*
X703053Y182907D01*
X703153Y182881D01*
X703252Y182851D01*
X703272Y182852D01*
X703291Y182847D01*
X703394Y182855D01*
X703498Y182857D01*
X703516Y182864D01*
X703536Y182866D01*
X703631Y182906D01*
X703729Y182942D01*
X703744Y182954D01*
X703763Y182962D01*
X703894Y183067D01*
X706164Y185337D01*
X709432Y186691D01*
X712968Y186691D01*
X716236Y185337D01*
X718737Y182836D01*
X720091Y179568D01*
X720091Y176032D01*
X718737Y172764D01*
X716236Y170263D01*
X712968Y168909D01*
X709432Y168909D01*
X706164Y170263D01*
X703663Y172764D01*
X702309Y176032D01*
X702309Y176791D01*
X702295Y176882D01*
X702287Y176972D01*
X702275Y177002D01*
X702270Y177034D01*
X702227Y177115D01*
X702191Y177199D01*
X702165Y177231D01*
X702154Y177252D01*
X702131Y177274D01*
X702086Y177330D01*
X635863Y243553D01*
X635789Y243606D01*
X635720Y243665D01*
X635690Y243678D01*
X635664Y243696D01*
X635577Y243723D01*
X635492Y243757D01*
X635451Y243762D01*
X635428Y243769D01*
X635396Y243768D01*
X635325Y243776D01*
X610210Y243776D01*
X610190Y243773D01*
X610170Y243775D01*
X610069Y243753D01*
X609967Y243736D01*
X609949Y243727D01*
X609930Y243722D01*
X609841Y243669D01*
X609749Y243621D01*
X609736Y243607D01*
X609719Y243596D01*
X609651Y243518D01*
X609580Y243443D01*
X609572Y243425D01*
X609559Y243409D01*
X609520Y243313D01*
X609476Y243220D01*
X609474Y243200D01*
X609467Y243181D01*
X609448Y243015D01*
X609448Y242785D01*
X607785Y238770D01*
X604713Y235698D01*
X600698Y234035D01*
X596537Y234035D01*
X596466Y234023D01*
X596394Y234021D01*
X596345Y234004D01*
X596294Y233995D01*
X596231Y233962D01*
X596163Y233937D01*
X596123Y233904D01*
X596077Y233880D01*
X596027Y233828D01*
X595971Y233783D01*
X595943Y233739D01*
X595907Y233702D01*
X595877Y233637D01*
X595838Y233576D01*
X595826Y233526D01*
X595804Y233479D01*
X595796Y233407D01*
X595778Y233338D01*
X595782Y233286D01*
X595777Y233234D01*
X595792Y233164D01*
X595797Y233093D01*
X595818Y233045D01*
X595829Y232994D01*
X595866Y232932D01*
X595894Y232866D01*
X595939Y232810D01*
X595955Y232783D01*
X595973Y232767D01*
X595999Y232735D01*
X611887Y216847D01*
X611887Y186985D01*
X611906Y186870D01*
X611923Y186754D01*
X611925Y186748D01*
X611926Y186742D01*
X611981Y186639D01*
X612034Y186535D01*
X612039Y186530D01*
X612042Y186525D01*
X612126Y186445D01*
X612210Y186362D01*
X612216Y186359D01*
X612220Y186355D01*
X612237Y186347D01*
X612357Y186281D01*
X614636Y185337D01*
X617137Y182836D01*
X618491Y179568D01*
X618491Y176032D01*
X617137Y172764D01*
X614636Y170263D01*
X611368Y168909D01*
X607832Y168909D01*
X604564Y170263D01*
X602063Y172764D01*
X600709Y176032D01*
X600709Y179568D01*
X602063Y182836D01*
X604564Y185337D01*
X606843Y186281D01*
X606943Y186343D01*
X607043Y186403D01*
X607047Y186408D01*
X607052Y186411D01*
X607127Y186501D01*
X607203Y186590D01*
X607205Y186596D01*
X607209Y186600D01*
X607251Y186709D01*
X607295Y186818D01*
X607296Y186826D01*
X607297Y186830D01*
X607298Y186848D01*
X607313Y186985D01*
X607313Y214637D01*
X607299Y214728D01*
X607291Y214818D01*
X607279Y214848D01*
X607274Y214880D01*
X607231Y214961D01*
X607195Y215045D01*
X607169Y215077D01*
X607158Y215098D01*
X607135Y215120D01*
X607090Y215176D01*
X585063Y237203D01*
X583479Y238787D01*
X583463Y238799D01*
X583450Y238814D01*
X583363Y238870D01*
X583279Y238931D01*
X583260Y238937D01*
X583243Y238947D01*
X583143Y238973D01*
X583044Y239003D01*
X583024Y239003D01*
X583005Y239007D01*
X582902Y238999D01*
X582798Y238997D01*
X582779Y238990D01*
X582760Y238988D01*
X582665Y238948D01*
X582567Y238912D01*
X582552Y238900D01*
X582533Y238892D01*
X582402Y238787D01*
X579313Y235698D01*
X575298Y234035D01*
X571137Y234035D01*
X571066Y234023D01*
X570994Y234021D01*
X570945Y234004D01*
X570894Y233995D01*
X570831Y233962D01*
X570763Y233937D01*
X570723Y233904D01*
X570677Y233880D01*
X570627Y233828D01*
X570571Y233783D01*
X570543Y233739D01*
X570507Y233702D01*
X570477Y233637D01*
X570438Y233576D01*
X570426Y233526D01*
X570404Y233479D01*
X570396Y233407D01*
X570378Y233338D01*
X570382Y233286D01*
X570377Y233234D01*
X570392Y233164D01*
X570397Y233093D01*
X570418Y233045D01*
X570429Y232994D01*
X570466Y232932D01*
X570494Y232866D01*
X570539Y232810D01*
X570555Y232783D01*
X570573Y232767D01*
X570599Y232735D01*
X573787Y229547D01*
X573787Y170503D01*
X561310Y158026D01*
X561257Y157952D01*
X561197Y157882D01*
X561185Y157852D01*
X561166Y157826D01*
X561139Y157739D01*
X561105Y157654D01*
X561101Y157613D01*
X561094Y157591D01*
X561095Y157559D01*
X561087Y157487D01*
X561087Y34585D01*
X561106Y34470D01*
X561123Y34354D01*
X561125Y34348D01*
X561126Y34342D01*
X561181Y34239D01*
X561234Y34135D01*
X561239Y34130D01*
X561242Y34125D01*
X561326Y34045D01*
X561410Y33962D01*
X561416Y33959D01*
X561420Y33955D01*
X561437Y33947D01*
X561557Y33881D01*
X563836Y32937D01*
X566337Y30436D01*
X567691Y27168D01*
X567691Y23632D01*
X566337Y20364D01*
X563836Y17863D01*
X560568Y16509D01*
X557032Y16509D01*
G37*
%LPD*%
%LPC*%
G36*
X811032Y16509D02*
X811032Y16509D01*
X807764Y17863D01*
X805263Y20364D01*
X803909Y23632D01*
X803909Y27168D01*
X805263Y30436D01*
X807764Y32937D01*
X810043Y33881D01*
X810143Y33943D01*
X810243Y34003D01*
X810247Y34008D01*
X810252Y34011D01*
X810327Y34101D01*
X810403Y34190D01*
X810405Y34196D01*
X810409Y34200D01*
X810451Y34309D01*
X810495Y34418D01*
X810496Y34426D01*
X810497Y34430D01*
X810498Y34448D01*
X810513Y34585D01*
X810513Y106687D01*
X810499Y106778D01*
X810491Y106868D01*
X810479Y106898D01*
X810474Y106930D01*
X810431Y107011D01*
X810395Y107095D01*
X810369Y107127D01*
X810358Y107148D01*
X810335Y107170D01*
X810290Y107226D01*
X747013Y170503D01*
X747013Y420116D01*
X747010Y420136D01*
X747012Y420155D01*
X746990Y420257D01*
X746974Y420359D01*
X746964Y420376D01*
X746960Y420396D01*
X746907Y420485D01*
X746858Y420576D01*
X746844Y420590D01*
X746834Y420607D01*
X746755Y420674D01*
X746680Y420746D01*
X746662Y420754D01*
X746647Y420767D01*
X746551Y420806D01*
X746457Y420849D01*
X746437Y420851D01*
X746419Y420859D01*
X746252Y420877D01*
X744776Y420877D01*
X738377Y427276D01*
X738377Y436324D01*
X744776Y442723D01*
X753824Y442723D01*
X760223Y436324D01*
X760223Y427276D01*
X753824Y420877D01*
X752348Y420877D01*
X752328Y420874D01*
X752309Y420876D01*
X752207Y420854D01*
X752105Y420838D01*
X752088Y420828D01*
X752068Y420824D01*
X751979Y420771D01*
X751888Y420722D01*
X751874Y420708D01*
X751857Y420698D01*
X751790Y420619D01*
X751718Y420544D01*
X751710Y420526D01*
X751697Y420511D01*
X751658Y420415D01*
X751615Y420321D01*
X751613Y420301D01*
X751605Y420283D01*
X751587Y420116D01*
X751587Y172713D01*
X751601Y172622D01*
X751609Y172532D01*
X751621Y172502D01*
X751626Y172470D01*
X751669Y172389D01*
X751705Y172305D01*
X751731Y172273D01*
X751742Y172252D01*
X751765Y172230D01*
X751810Y172174D01*
X815087Y108897D01*
X815087Y34585D01*
X815106Y34470D01*
X815123Y34354D01*
X815125Y34348D01*
X815126Y34342D01*
X815181Y34239D01*
X815234Y34135D01*
X815239Y34130D01*
X815242Y34125D01*
X815326Y34045D01*
X815410Y33962D01*
X815416Y33959D01*
X815420Y33955D01*
X815437Y33947D01*
X815557Y33881D01*
X817836Y32937D01*
X820337Y30436D01*
X821691Y27168D01*
X821691Y23632D01*
X820337Y20364D01*
X817836Y17863D01*
X814568Y16509D01*
X811032Y16509D01*
G37*
%LPD*%
%LPC*%
G36*
X744776Y446277D02*
X744776Y446277D01*
X738377Y452676D01*
X738377Y461724D01*
X744776Y468123D01*
X753824Y468123D01*
X760223Y461724D01*
X760223Y452676D01*
X753824Y446277D01*
X744776Y446277D01*
G37*
%LPD*%
%LPC*%
G36*
X719376Y420877D02*
X719376Y420877D01*
X712977Y427276D01*
X712977Y436324D01*
X719376Y442723D01*
X728424Y442723D01*
X734823Y436324D01*
X734823Y427276D01*
X728424Y420877D01*
X719376Y420877D01*
G37*
%LPD*%
%LPC*%
G36*
X617776Y420877D02*
X617776Y420877D01*
X611377Y427276D01*
X611377Y436324D01*
X617776Y442723D01*
X626824Y442723D01*
X633223Y436324D01*
X633223Y427276D01*
X626824Y420877D01*
X617776Y420877D01*
G37*
%LPD*%
%LPC*%
G36*
X770176Y420877D02*
X770176Y420877D01*
X763777Y427276D01*
X763777Y436324D01*
X770176Y442723D01*
X779224Y442723D01*
X785623Y436324D01*
X785623Y427276D01*
X779224Y420877D01*
X770176Y420877D01*
G37*
%LPD*%
%LPC*%
G36*
X795576Y420877D02*
X795576Y420877D01*
X789177Y427276D01*
X789177Y436324D01*
X795576Y442723D01*
X804624Y442723D01*
X811023Y436324D01*
X811023Y427276D01*
X804624Y420877D01*
X795576Y420877D01*
G37*
%LPD*%
%LPC*%
G36*
X617776Y446277D02*
X617776Y446277D01*
X611377Y452676D01*
X611377Y461724D01*
X617776Y468123D01*
X626824Y468123D01*
X633223Y461724D01*
X633223Y452676D01*
X626824Y446277D01*
X617776Y446277D01*
G37*
%LPD*%
%LPC*%
G36*
X719376Y446277D02*
X719376Y446277D01*
X712977Y452676D01*
X712977Y461724D01*
X719376Y468123D01*
X728424Y468123D01*
X734823Y461724D01*
X734823Y452676D01*
X728424Y446277D01*
X719376Y446277D01*
G37*
%LPD*%
%LPC*%
G36*
X770176Y446277D02*
X770176Y446277D01*
X763777Y452676D01*
X763777Y461724D01*
X770176Y468123D01*
X779224Y468123D01*
X785623Y461724D01*
X785623Y452676D01*
X779224Y446277D01*
X770176Y446277D01*
G37*
%LPD*%
%LPC*%
G36*
X795576Y446277D02*
X795576Y446277D01*
X789177Y452676D01*
X789177Y461724D01*
X795576Y468123D01*
X804624Y468123D01*
X811023Y461724D01*
X811023Y452676D01*
X804624Y446277D01*
X795576Y446277D01*
G37*
%LPD*%
%LPC*%
G36*
X442327Y446277D02*
X442327Y446277D01*
X438313Y447940D01*
X435240Y451013D01*
X433577Y455027D01*
X433577Y459373D01*
X435240Y463387D01*
X438313Y466460D01*
X442327Y468123D01*
X446673Y468123D01*
X450687Y466460D01*
X453760Y463387D01*
X455423Y459373D01*
X455423Y455027D01*
X453760Y451013D01*
X450687Y447940D01*
X446673Y446277D01*
X442327Y446277D01*
G37*
%LPD*%
%LPC*%
G36*
X226427Y243077D02*
X226427Y243077D01*
X222413Y244740D01*
X219340Y247813D01*
X217677Y251827D01*
X217677Y256173D01*
X219340Y260187D01*
X222413Y263260D01*
X226427Y264923D01*
X230773Y264923D01*
X234787Y263260D01*
X237860Y260187D01*
X239523Y256173D01*
X239523Y251827D01*
X237860Y247813D01*
X234787Y244740D01*
X230773Y243077D01*
X226427Y243077D01*
G37*
%LPD*%
%LPC*%
G36*
X201027Y217677D02*
X201027Y217677D01*
X197013Y219340D01*
X193940Y222413D01*
X192277Y226427D01*
X192277Y230773D01*
X193940Y234787D01*
X197013Y237860D01*
X201027Y239523D01*
X205373Y239523D01*
X209387Y237860D01*
X212460Y234787D01*
X214123Y230773D01*
X214123Y226427D01*
X212460Y222413D01*
X209387Y219340D01*
X205373Y217677D01*
X201027Y217677D01*
G37*
%LPD*%
%LPC*%
G36*
X226427Y268477D02*
X226427Y268477D01*
X222413Y270140D01*
X219340Y273213D01*
X217677Y277227D01*
X217677Y281573D01*
X219340Y285587D01*
X222413Y288660D01*
X226427Y290323D01*
X230773Y290323D01*
X234787Y288660D01*
X237860Y285587D01*
X239523Y281573D01*
X239523Y277227D01*
X237860Y273213D01*
X234787Y270140D01*
X230773Y268477D01*
X226427Y268477D01*
G37*
%LPD*%
%LPC*%
G36*
X289927Y446277D02*
X289927Y446277D01*
X285913Y447940D01*
X282840Y451013D01*
X281177Y455027D01*
X281177Y459373D01*
X282840Y463387D01*
X285913Y466460D01*
X289927Y468123D01*
X294273Y468123D01*
X298287Y466460D01*
X301360Y463387D01*
X303023Y459373D01*
X303023Y455027D01*
X301360Y451013D01*
X298287Y447940D01*
X294273Y446277D01*
X289927Y446277D01*
G37*
%LPD*%
%LPC*%
G36*
X226427Y370077D02*
X226427Y370077D01*
X222413Y371740D01*
X219340Y374813D01*
X217677Y378827D01*
X217677Y383173D01*
X219340Y387187D01*
X222413Y390260D01*
X226427Y391923D01*
X230773Y391923D01*
X234787Y390260D01*
X237860Y387187D01*
X239523Y383173D01*
X239523Y378827D01*
X237860Y374813D01*
X234787Y371740D01*
X230773Y370077D01*
X226427Y370077D01*
G37*
%LPD*%
%LPC*%
G36*
X416927Y446277D02*
X416927Y446277D01*
X412913Y447940D01*
X409840Y451013D01*
X408177Y455027D01*
X408177Y459373D01*
X409840Y463387D01*
X412913Y466460D01*
X416927Y468123D01*
X421273Y468123D01*
X425287Y466460D01*
X428360Y463387D01*
X430023Y459373D01*
X430023Y455027D01*
X428360Y451013D01*
X425287Y447940D01*
X421273Y446277D01*
X416927Y446277D01*
G37*
%LPD*%
%LPC*%
G36*
X391527Y446277D02*
X391527Y446277D01*
X387513Y447940D01*
X384440Y451013D01*
X382777Y455027D01*
X382777Y459373D01*
X384440Y463387D01*
X387513Y466460D01*
X391527Y468123D01*
X395873Y468123D01*
X399887Y466460D01*
X402960Y463387D01*
X404623Y459373D01*
X404623Y455027D01*
X402960Y451013D01*
X399887Y447940D01*
X395873Y446277D01*
X391527Y446277D01*
G37*
%LPD*%
%LPC*%
G36*
X366127Y446277D02*
X366127Y446277D01*
X362113Y447940D01*
X359040Y451013D01*
X357377Y455027D01*
X357377Y459373D01*
X359040Y463387D01*
X362113Y466460D01*
X366127Y468123D01*
X370473Y468123D01*
X374487Y466460D01*
X377560Y463387D01*
X379223Y459373D01*
X379223Y455027D01*
X377560Y451013D01*
X374487Y447940D01*
X370473Y446277D01*
X366127Y446277D01*
G37*
%LPD*%
%LPC*%
G36*
X226427Y395477D02*
X226427Y395477D01*
X222413Y397140D01*
X219340Y400213D01*
X217677Y404227D01*
X217677Y408573D01*
X219340Y412587D01*
X222413Y415660D01*
X226427Y417323D01*
X230773Y417323D01*
X234787Y415660D01*
X237860Y412587D01*
X239523Y408573D01*
X239523Y404227D01*
X237860Y400213D01*
X234787Y397140D01*
X230773Y395477D01*
X226427Y395477D01*
G37*
%LPD*%
%LPC*%
G36*
X226427Y344677D02*
X226427Y344677D01*
X222413Y346340D01*
X219340Y349413D01*
X217677Y353427D01*
X217677Y357773D01*
X219340Y361787D01*
X222413Y364860D01*
X226427Y366523D01*
X230773Y366523D01*
X234787Y364860D01*
X237860Y361787D01*
X239523Y357773D01*
X239523Y353427D01*
X237860Y349413D01*
X234787Y346340D01*
X230773Y344677D01*
X226427Y344677D01*
G37*
%LPD*%
%LPC*%
G36*
X226427Y319277D02*
X226427Y319277D01*
X222413Y320940D01*
X219340Y324013D01*
X217677Y328027D01*
X217677Y332373D01*
X219340Y336387D01*
X222413Y339460D01*
X226427Y341123D01*
X230773Y341123D01*
X234787Y339460D01*
X237860Y336387D01*
X239523Y332373D01*
X239523Y328027D01*
X237860Y324013D01*
X234787Y320940D01*
X230773Y319277D01*
X226427Y319277D01*
G37*
%LPD*%
%LPC*%
G36*
X226427Y217677D02*
X226427Y217677D01*
X222413Y219340D01*
X219340Y222413D01*
X217677Y226427D01*
X217677Y230773D01*
X219340Y234787D01*
X222413Y237860D01*
X226427Y239523D01*
X230773Y239523D01*
X234787Y237860D01*
X237860Y234787D01*
X239523Y230773D01*
X239523Y226427D01*
X237860Y222413D01*
X234787Y219340D01*
X230773Y217677D01*
X226427Y217677D01*
G37*
%LPD*%
%LPC*%
G36*
X226427Y293877D02*
X226427Y293877D01*
X222413Y295540D01*
X219340Y298613D01*
X217677Y302627D01*
X217677Y306973D01*
X219340Y310987D01*
X222413Y314060D01*
X226427Y315723D01*
X230773Y315723D01*
X234787Y314060D01*
X237860Y310987D01*
X239523Y306973D01*
X239523Y302627D01*
X237860Y298613D01*
X234787Y295540D01*
X230773Y293877D01*
X226427Y293877D01*
G37*
%LPD*%
%LPC*%
G36*
X315327Y446277D02*
X315327Y446277D01*
X311313Y447940D01*
X308240Y451013D01*
X306577Y455027D01*
X306577Y459373D01*
X308240Y463387D01*
X311313Y466460D01*
X315327Y468123D01*
X319673Y468123D01*
X323687Y466460D01*
X326760Y463387D01*
X328423Y459373D01*
X328423Y455027D01*
X326760Y451013D01*
X323687Y447940D01*
X319673Y446277D01*
X315327Y446277D01*
G37*
%LPD*%
%LPC*%
G36*
X684032Y16509D02*
X684032Y16509D01*
X680764Y17863D01*
X678263Y20364D01*
X676909Y23632D01*
X676909Y27168D01*
X678263Y30436D01*
X680764Y32937D01*
X684032Y34291D01*
X687568Y34291D01*
X690836Y32937D01*
X693337Y30436D01*
X694691Y27168D01*
X694691Y23632D01*
X693337Y20364D01*
X690836Y17863D01*
X687568Y16509D01*
X684032Y16509D01*
G37*
%LPD*%
%LPC*%
G36*
X696732Y143509D02*
X696732Y143509D01*
X693464Y144863D01*
X690963Y147364D01*
X689609Y150632D01*
X689609Y154168D01*
X690963Y157436D01*
X693464Y159937D01*
X696732Y161291D01*
X700268Y161291D01*
X703536Y159937D01*
X706037Y157436D01*
X707391Y154168D01*
X707391Y150632D01*
X706037Y147364D01*
X703536Y144863D01*
X700268Y143509D01*
X696732Y143509D01*
G37*
%LPD*%
%LPC*%
G36*
X709432Y16509D02*
X709432Y16509D01*
X706164Y17863D01*
X703663Y20364D01*
X702309Y23632D01*
X702309Y27168D01*
X703663Y30436D01*
X706164Y32937D01*
X709432Y34291D01*
X712968Y34291D01*
X716236Y32937D01*
X718737Y30436D01*
X720091Y27168D01*
X720091Y23632D01*
X718737Y20364D01*
X716236Y17863D01*
X712968Y16509D01*
X709432Y16509D01*
G37*
%LPD*%
%LPC*%
G36*
X607832Y16509D02*
X607832Y16509D01*
X604564Y17863D01*
X602063Y20364D01*
X600709Y23632D01*
X600709Y27168D01*
X602063Y30436D01*
X604564Y32937D01*
X607832Y34291D01*
X611368Y34291D01*
X614636Y32937D01*
X617137Y30436D01*
X618491Y27168D01*
X618491Y23632D01*
X617137Y20364D01*
X614636Y17863D01*
X611368Y16509D01*
X607832Y16509D01*
G37*
%LPD*%
%LPC*%
G36*
X734832Y16509D02*
X734832Y16509D01*
X731564Y17863D01*
X729063Y20364D01*
X727709Y23632D01*
X727709Y27168D01*
X729063Y30436D01*
X731564Y32937D01*
X734832Y34291D01*
X738368Y34291D01*
X741636Y32937D01*
X744137Y30436D01*
X745491Y27168D01*
X745491Y23632D01*
X744137Y20364D01*
X741636Y17863D01*
X738368Y16509D01*
X734832Y16509D01*
G37*
%LPD*%
%LPC*%
G36*
X277632Y168909D02*
X277632Y168909D01*
X274364Y170263D01*
X271863Y172764D01*
X270509Y176032D01*
X270509Y179568D01*
X271863Y182836D01*
X274364Y185337D01*
X277632Y186691D01*
X281168Y186691D01*
X284436Y185337D01*
X286937Y182836D01*
X288291Y179568D01*
X288291Y176032D01*
X286937Y172764D01*
X284436Y170263D01*
X281168Y168909D01*
X277632Y168909D01*
G37*
%LPD*%
%LPC*%
G36*
X785632Y168909D02*
X785632Y168909D01*
X782364Y170263D01*
X779863Y172764D01*
X778509Y176032D01*
X778509Y179568D01*
X779863Y182836D01*
X782364Y185337D01*
X785632Y186691D01*
X789168Y186691D01*
X792436Y185337D01*
X794937Y182836D01*
X796291Y179568D01*
X796291Y176032D01*
X794937Y172764D01*
X792436Y170263D01*
X789168Y168909D01*
X785632Y168909D01*
G37*
%LPD*%
%LPC*%
G36*
X531632Y16509D02*
X531632Y16509D01*
X528364Y17863D01*
X525863Y20364D01*
X524509Y23632D01*
X524509Y27168D01*
X525863Y30436D01*
X528364Y32937D01*
X531632Y34291D01*
X535168Y34291D01*
X538436Y32937D01*
X540937Y30436D01*
X542291Y27168D01*
X542291Y23632D01*
X540937Y20364D01*
X538436Y17863D01*
X535168Y16509D01*
X531632Y16509D01*
G37*
%LPD*%
%LPC*%
G36*
X404632Y168909D02*
X404632Y168909D01*
X401364Y170263D01*
X398863Y172764D01*
X397509Y176032D01*
X397509Y179568D01*
X398863Y182836D01*
X401364Y185337D01*
X404632Y186691D01*
X408168Y186691D01*
X411436Y185337D01*
X413937Y182836D01*
X415291Y179568D01*
X415291Y176032D01*
X413937Y172764D01*
X411436Y170263D01*
X408168Y168909D01*
X404632Y168909D01*
G37*
%LPD*%
%LPC*%
G36*
X455432Y168909D02*
X455432Y168909D01*
X452164Y170263D01*
X449663Y172764D01*
X448309Y176032D01*
X448309Y179568D01*
X449663Y182836D01*
X452164Y185337D01*
X455432Y186691D01*
X458968Y186691D01*
X462236Y185337D01*
X464737Y182836D01*
X466091Y179568D01*
X466091Y176032D01*
X464737Y172764D01*
X462236Y170263D01*
X458968Y168909D01*
X455432Y168909D01*
G37*
%LPD*%
%LPC*%
G36*
X252232Y168909D02*
X252232Y168909D01*
X248964Y170263D01*
X246463Y172764D01*
X245109Y176032D01*
X245109Y179568D01*
X246463Y182836D01*
X248964Y185337D01*
X252232Y186691D01*
X255768Y186691D01*
X259036Y185337D01*
X261537Y182836D01*
X262891Y179568D01*
X262891Y176032D01*
X261537Y172764D01*
X259036Y170263D01*
X255768Y168909D01*
X252232Y168909D01*
G37*
%LPD*%
%LPC*%
G36*
X480832Y168909D02*
X480832Y168909D01*
X477564Y170263D01*
X475063Y172764D01*
X473709Y176032D01*
X473709Y179568D01*
X475063Y182836D01*
X477564Y185337D01*
X480832Y186691D01*
X484368Y186691D01*
X487636Y185337D01*
X490137Y182836D01*
X491491Y179568D01*
X491491Y176032D01*
X490137Y172764D01*
X487636Y170263D01*
X484368Y168909D01*
X480832Y168909D01*
G37*
%LPD*%
%LPC*%
G36*
X506232Y168909D02*
X506232Y168909D01*
X502964Y170263D01*
X500463Y172764D01*
X499109Y176032D01*
X499109Y179568D01*
X500463Y182836D01*
X502964Y185337D01*
X506232Y186691D01*
X509768Y186691D01*
X513036Y185337D01*
X515537Y182836D01*
X516891Y179568D01*
X516891Y176032D01*
X515537Y172764D01*
X513036Y170263D01*
X509768Y168909D01*
X506232Y168909D01*
G37*
%LPD*%
%LPC*%
G36*
X760232Y16509D02*
X760232Y16509D01*
X756964Y17863D01*
X754463Y20364D01*
X753109Y23632D01*
X753109Y27168D01*
X754463Y30436D01*
X756964Y32937D01*
X760232Y34291D01*
X763768Y34291D01*
X767036Y32937D01*
X769537Y30436D01*
X770891Y27168D01*
X770891Y23632D01*
X769537Y20364D01*
X767036Y17863D01*
X763768Y16509D01*
X760232Y16509D01*
G37*
%LPD*%
%LPC*%
G36*
X277632Y16509D02*
X277632Y16509D01*
X274364Y17863D01*
X271863Y20364D01*
X270509Y23632D01*
X270509Y27168D01*
X271863Y30436D01*
X274364Y32937D01*
X277632Y34291D01*
X281168Y34291D01*
X284436Y32937D01*
X286937Y30436D01*
X288291Y27168D01*
X288291Y23632D01*
X286937Y20364D01*
X284436Y17863D01*
X281168Y16509D01*
X277632Y16509D01*
G37*
%LPD*%
%LPC*%
G36*
X252232Y16509D02*
X252232Y16509D01*
X248964Y17863D01*
X246463Y20364D01*
X245109Y23632D01*
X245109Y27168D01*
X246463Y30436D01*
X248964Y32937D01*
X252232Y34291D01*
X255768Y34291D01*
X259036Y32937D01*
X261537Y30436D01*
X262891Y27168D01*
X262891Y23632D01*
X261537Y20364D01*
X259036Y17863D01*
X255768Y16509D01*
X252232Y16509D01*
G37*
%LPD*%
%LPC*%
G36*
X226832Y16509D02*
X226832Y16509D01*
X223564Y17863D01*
X221063Y20364D01*
X219709Y23632D01*
X219709Y27168D01*
X221063Y30436D01*
X223564Y32937D01*
X226832Y34291D01*
X230368Y34291D01*
X233636Y32937D01*
X236137Y30436D01*
X237491Y27168D01*
X237491Y23632D01*
X236137Y20364D01*
X233636Y17863D01*
X230368Y16509D01*
X226832Y16509D01*
G37*
%LPD*%
%LPC*%
G36*
X303032Y16509D02*
X303032Y16509D01*
X299764Y17863D01*
X297263Y20364D01*
X295909Y23632D01*
X295909Y27168D01*
X297263Y30436D01*
X299764Y32937D01*
X303032Y34291D01*
X306568Y34291D01*
X309836Y32937D01*
X312337Y30436D01*
X313691Y27168D01*
X313691Y23632D01*
X312337Y20364D01*
X309836Y17863D01*
X306568Y16509D01*
X303032Y16509D01*
G37*
%LPD*%
%LPC*%
G36*
X328432Y16509D02*
X328432Y16509D01*
X325164Y17863D01*
X322663Y20364D01*
X321309Y23632D01*
X321309Y27168D01*
X322663Y30436D01*
X325164Y32937D01*
X328432Y34291D01*
X331968Y34291D01*
X335236Y32937D01*
X337737Y30436D01*
X339091Y27168D01*
X339091Y23632D01*
X337737Y20364D01*
X335236Y17863D01*
X331968Y16509D01*
X328432Y16509D01*
G37*
%LPD*%
%LPC*%
G36*
X353832Y16509D02*
X353832Y16509D01*
X350564Y17863D01*
X348063Y20364D01*
X346709Y23632D01*
X346709Y27168D01*
X348063Y30436D01*
X350564Y32937D01*
X353832Y34291D01*
X357368Y34291D01*
X360636Y32937D01*
X363137Y30436D01*
X364491Y27168D01*
X364491Y23632D01*
X363137Y20364D01*
X360636Y17863D01*
X357368Y16509D01*
X353832Y16509D01*
G37*
%LPD*%
%LPC*%
G36*
X506232Y16509D02*
X506232Y16509D01*
X502964Y17863D01*
X500463Y20364D01*
X499109Y23632D01*
X499109Y27168D01*
X500463Y30436D01*
X502964Y32937D01*
X506232Y34291D01*
X509768Y34291D01*
X513036Y32937D01*
X515537Y30436D01*
X516891Y27168D01*
X516891Y23632D01*
X515537Y20364D01*
X513036Y17863D01*
X509768Y16509D01*
X506232Y16509D01*
G37*
%LPD*%
%LPC*%
G36*
X785632Y16509D02*
X785632Y16509D01*
X782364Y17863D01*
X779863Y20364D01*
X778509Y23632D01*
X778509Y27168D01*
X779863Y30436D01*
X782364Y32937D01*
X785632Y34291D01*
X789168Y34291D01*
X792436Y32937D01*
X794937Y30436D01*
X796291Y27168D01*
X796291Y23632D01*
X794937Y20364D01*
X792436Y17863D01*
X789168Y16509D01*
X785632Y16509D01*
G37*
%LPD*%
%LPC*%
G36*
X531632Y168909D02*
X531632Y168909D01*
X528364Y170263D01*
X525863Y172764D01*
X524509Y176032D01*
X524509Y179568D01*
X525863Y182836D01*
X528364Y185337D01*
X531632Y186691D01*
X535168Y186691D01*
X538436Y185337D01*
X540937Y182836D01*
X542291Y179568D01*
X542291Y176032D01*
X540937Y172764D01*
X538436Y170263D01*
X535168Y168909D01*
X531632Y168909D01*
G37*
%LPD*%
%LPC*%
G36*
X684032Y41909D02*
X684032Y41909D01*
X680764Y43263D01*
X678263Y45764D01*
X676909Y49032D01*
X676909Y52568D01*
X678263Y55836D01*
X680764Y58337D01*
X684032Y59691D01*
X687568Y59691D01*
X690836Y58337D01*
X693337Y55836D01*
X694691Y52568D01*
X694691Y49032D01*
X693337Y45764D01*
X690836Y43263D01*
X687568Y41909D01*
X684032Y41909D01*
G37*
%LPD*%
%LPC*%
G36*
X557032Y168909D02*
X557032Y168909D01*
X553764Y170263D01*
X551263Y172764D01*
X549909Y176032D01*
X549909Y179568D01*
X551263Y182836D01*
X553764Y185337D01*
X557032Y186691D01*
X560568Y186691D01*
X563836Y185337D01*
X566337Y182836D01*
X567691Y179568D01*
X567691Y176032D01*
X566337Y172764D01*
X563836Y170263D01*
X560568Y168909D01*
X557032Y168909D01*
G37*
%LPD*%
%LPC*%
G36*
X709432Y41909D02*
X709432Y41909D01*
X706164Y43263D01*
X703663Y45764D01*
X702309Y49032D01*
X702309Y52568D01*
X703663Y55836D01*
X706164Y58337D01*
X709432Y59691D01*
X712968Y59691D01*
X716236Y58337D01*
X718737Y55836D01*
X720091Y52568D01*
X720091Y49032D01*
X718737Y45764D01*
X716236Y43263D01*
X712968Y41909D01*
X709432Y41909D01*
G37*
%LPD*%
%LPC*%
G36*
X353832Y41909D02*
X353832Y41909D01*
X350564Y43263D01*
X348063Y45764D01*
X346709Y49032D01*
X346709Y52568D01*
X348063Y55836D01*
X350564Y58337D01*
X353832Y59691D01*
X357368Y59691D01*
X360636Y58337D01*
X363137Y55836D01*
X364491Y52568D01*
X364491Y49032D01*
X363137Y45764D01*
X360636Y43263D01*
X357368Y41909D01*
X353832Y41909D01*
G37*
%LPD*%
%LPC*%
G36*
X785632Y41909D02*
X785632Y41909D01*
X782364Y43263D01*
X779863Y45764D01*
X778509Y49032D01*
X778509Y52568D01*
X779863Y55836D01*
X782364Y58337D01*
X785632Y59691D01*
X789168Y59691D01*
X792436Y58337D01*
X794937Y55836D01*
X796291Y52568D01*
X796291Y49032D01*
X794937Y45764D01*
X792436Y43263D01*
X789168Y41909D01*
X785632Y41909D01*
G37*
%LPD*%
%LPC*%
G36*
X734832Y41909D02*
X734832Y41909D01*
X731564Y43263D01*
X729063Y45764D01*
X727709Y49032D01*
X727709Y52568D01*
X729063Y55836D01*
X731564Y58337D01*
X734832Y59691D01*
X738368Y59691D01*
X741636Y58337D01*
X744137Y55836D01*
X745491Y52568D01*
X745491Y49032D01*
X744137Y45764D01*
X741636Y43263D01*
X738368Y41909D01*
X734832Y41909D01*
G37*
%LPD*%
%LPC*%
G36*
X379232Y16509D02*
X379232Y16509D01*
X375964Y17863D01*
X373463Y20364D01*
X372109Y23632D01*
X372109Y27168D01*
X373463Y30436D01*
X375964Y32937D01*
X379232Y34291D01*
X382768Y34291D01*
X386036Y32937D01*
X388537Y30436D01*
X389891Y27168D01*
X389891Y23632D01*
X388537Y20364D01*
X386036Y17863D01*
X382768Y16509D01*
X379232Y16509D01*
G37*
%LPD*%
%LPC*%
G36*
X353832Y67309D02*
X353832Y67309D01*
X350564Y68663D01*
X348063Y71164D01*
X346709Y74432D01*
X346709Y77968D01*
X348063Y81236D01*
X350564Y83737D01*
X353832Y85091D01*
X357368Y85091D01*
X360636Y83737D01*
X363137Y81236D01*
X364491Y77968D01*
X364491Y74432D01*
X363137Y71164D01*
X360636Y68663D01*
X357368Y67309D01*
X353832Y67309D01*
G37*
%LPD*%
%LPC*%
G36*
X353832Y92709D02*
X353832Y92709D01*
X350564Y94063D01*
X348063Y96564D01*
X346709Y99832D01*
X346709Y103368D01*
X348063Y106636D01*
X350564Y109137D01*
X353832Y110491D01*
X357368Y110491D01*
X360636Y109137D01*
X363137Y106636D01*
X364491Y103368D01*
X364491Y99832D01*
X363137Y96564D01*
X360636Y94063D01*
X357368Y92709D01*
X353832Y92709D01*
G37*
%LPD*%
%LPC*%
G36*
X353832Y118109D02*
X353832Y118109D01*
X350564Y119463D01*
X348063Y121964D01*
X346709Y125232D01*
X346709Y128768D01*
X348063Y132036D01*
X350564Y134537D01*
X353832Y135891D01*
X357368Y135891D01*
X360636Y134537D01*
X363137Y132036D01*
X364491Y128768D01*
X364491Y125232D01*
X363137Y121964D01*
X360636Y119463D01*
X357368Y118109D01*
X353832Y118109D01*
G37*
%LPD*%
%LPC*%
G36*
X671332Y143509D02*
X671332Y143509D01*
X668064Y144863D01*
X665563Y147364D01*
X664209Y150632D01*
X664209Y154168D01*
X665563Y157436D01*
X668064Y159937D01*
X671332Y161291D01*
X674868Y161291D01*
X678136Y159937D01*
X680637Y157436D01*
X681991Y154168D01*
X681991Y150632D01*
X680637Y147364D01*
X678136Y144863D01*
X674868Y143509D01*
X671332Y143509D01*
G37*
%LPD*%
%LPC*%
G36*
X582432Y16509D02*
X582432Y16509D01*
X579164Y17863D01*
X576663Y20364D01*
X575309Y23632D01*
X575309Y27168D01*
X576663Y30436D01*
X579164Y32937D01*
X582432Y34291D01*
X585968Y34291D01*
X589236Y32937D01*
X591737Y30436D01*
X593091Y27168D01*
X593091Y23632D01*
X591737Y20364D01*
X589236Y17863D01*
X585968Y16509D01*
X582432Y16509D01*
G37*
%LPD*%
%LPC*%
G36*
X404632Y16509D02*
X404632Y16509D01*
X401364Y17863D01*
X398863Y20364D01*
X397509Y23632D01*
X397509Y27168D01*
X398863Y30436D01*
X401364Y32937D01*
X404632Y34291D01*
X408168Y34291D01*
X411436Y32937D01*
X413937Y30436D01*
X415291Y27168D01*
X415291Y23632D01*
X413937Y20364D01*
X411436Y17863D01*
X408168Y16509D01*
X404632Y16509D01*
G37*
%LPD*%
%LPC*%
G36*
X722132Y143509D02*
X722132Y143509D01*
X718864Y144863D01*
X716363Y147364D01*
X715009Y150632D01*
X715009Y154168D01*
X716363Y157436D01*
X718864Y159937D01*
X722132Y161291D01*
X725668Y161291D01*
X728936Y159937D01*
X731437Y157436D01*
X732791Y154168D01*
X732791Y150632D01*
X731437Y147364D01*
X728936Y144863D01*
X725668Y143509D01*
X722132Y143509D01*
G37*
%LPD*%
%LPC*%
G36*
X747532Y143509D02*
X747532Y143509D01*
X744264Y144863D01*
X741763Y147364D01*
X740409Y150632D01*
X740409Y154168D01*
X741763Y157436D01*
X744264Y159937D01*
X747532Y161291D01*
X751068Y161291D01*
X754336Y159937D01*
X756837Y157436D01*
X758191Y154168D01*
X758191Y150632D01*
X756837Y147364D01*
X754336Y144863D01*
X751068Y143509D01*
X747532Y143509D01*
G37*
%LPD*%
%LPC*%
G36*
X353832Y143509D02*
X353832Y143509D01*
X350564Y144863D01*
X348063Y147364D01*
X346709Y150632D01*
X346709Y154168D01*
X348063Y157436D01*
X350564Y159937D01*
X353832Y161291D01*
X357368Y161291D01*
X360636Y159937D01*
X363137Y157436D01*
X364491Y154168D01*
X364491Y150632D01*
X363137Y147364D01*
X360636Y144863D01*
X357368Y143509D01*
X353832Y143509D01*
G37*
%LPD*%
%LPC*%
G36*
X645932Y143509D02*
X645932Y143509D01*
X642664Y144863D01*
X640163Y147364D01*
X638809Y150632D01*
X638809Y154168D01*
X640163Y157436D01*
X642664Y159937D01*
X645932Y161291D01*
X649468Y161291D01*
X652736Y159937D01*
X655237Y157436D01*
X656591Y154168D01*
X656591Y150632D01*
X655237Y147364D01*
X652736Y144863D01*
X649468Y143509D01*
X645932Y143509D01*
G37*
%LPD*%
%LPC*%
G36*
X658632Y16509D02*
X658632Y16509D01*
X655364Y17863D01*
X652863Y20364D01*
X651509Y23632D01*
X651509Y27168D01*
X652863Y30436D01*
X655364Y32937D01*
X658632Y34291D01*
X662168Y34291D01*
X665436Y32937D01*
X667937Y30436D01*
X669291Y27168D01*
X669291Y23632D01*
X667937Y20364D01*
X665436Y17863D01*
X662168Y16509D01*
X658632Y16509D01*
G37*
%LPD*%
%LPC*%
G36*
X430032Y16509D02*
X430032Y16509D01*
X426764Y17863D01*
X424263Y20364D01*
X422909Y23632D01*
X422909Y27168D01*
X424263Y30436D01*
X426764Y32937D01*
X430032Y34291D01*
X433568Y34291D01*
X436836Y32937D01*
X439337Y30436D01*
X440691Y27168D01*
X440691Y23632D01*
X439337Y20364D01*
X436836Y17863D01*
X433568Y16509D01*
X430032Y16509D01*
G37*
%LPD*%
%LPC*%
G36*
X633232Y16509D02*
X633232Y16509D01*
X629964Y17863D01*
X627463Y20364D01*
X626109Y23632D01*
X626109Y27168D01*
X627463Y30436D01*
X629964Y32937D01*
X633232Y34291D01*
X636768Y34291D01*
X640036Y32937D01*
X642537Y30436D01*
X643891Y27168D01*
X643891Y23632D01*
X642537Y20364D01*
X640036Y17863D01*
X636768Y16509D01*
X633232Y16509D01*
G37*
%LPD*%
%LPC*%
G36*
X658632Y168909D02*
X658632Y168909D01*
X655364Y170263D01*
X652863Y172764D01*
X651509Y176032D01*
X651509Y179568D01*
X652863Y182836D01*
X655364Y185337D01*
X658632Y186691D01*
X662168Y186691D01*
X665436Y185337D01*
X667937Y182836D01*
X669291Y179568D01*
X669291Y176032D01*
X667937Y172764D01*
X665436Y170263D01*
X662168Y168909D01*
X658632Y168909D01*
G37*
%LPD*%
%LPC*%
G36*
X684032Y168909D02*
X684032Y168909D01*
X680764Y170263D01*
X678263Y172764D01*
X676909Y176032D01*
X676909Y179568D01*
X678263Y182836D01*
X680764Y185337D01*
X684032Y186691D01*
X687568Y186691D01*
X690836Y185337D01*
X693337Y182836D01*
X694691Y179568D01*
X694691Y176032D01*
X693337Y172764D01*
X690836Y170263D01*
X687568Y168909D01*
X684032Y168909D01*
G37*
%LPD*%
%LPC*%
G36*
X633232Y168909D02*
X633232Y168909D01*
X629964Y170263D01*
X627463Y172764D01*
X626109Y176032D01*
X626109Y179568D01*
X627463Y182836D01*
X629964Y185337D01*
X633232Y186691D01*
X636768Y186691D01*
X640036Y185337D01*
X642537Y182836D01*
X643891Y179568D01*
X643891Y176032D01*
X642537Y172764D01*
X640036Y170263D01*
X636768Y168909D01*
X633232Y168909D01*
G37*
%LPD*%
%LPC*%
G36*
X582432Y168909D02*
X582432Y168909D01*
X579164Y170263D01*
X576663Y172764D01*
X575309Y176032D01*
X575309Y179568D01*
X576663Y182836D01*
X579164Y185337D01*
X582432Y186691D01*
X585968Y186691D01*
X589236Y185337D01*
X591737Y182836D01*
X593091Y179568D01*
X593091Y176032D01*
X591737Y172764D01*
X589236Y170263D01*
X585968Y168909D01*
X582432Y168909D01*
G37*
%LPD*%
%LPC*%
G36*
X480832Y16509D02*
X480832Y16509D01*
X477564Y17863D01*
X475063Y20364D01*
X473709Y23632D01*
X473709Y27168D01*
X475063Y30436D01*
X477564Y32937D01*
X480832Y34291D01*
X484368Y34291D01*
X487636Y32937D01*
X490137Y30436D01*
X491491Y27168D01*
X491491Y23632D01*
X490137Y20364D01*
X487636Y17863D01*
X484368Y16509D01*
X480832Y16509D01*
G37*
%LPD*%
%LPC*%
G36*
X760232Y168909D02*
X760232Y168909D01*
X756964Y170263D01*
X754463Y172764D01*
X753109Y176032D01*
X753109Y179568D01*
X754463Y182836D01*
X756964Y185337D01*
X760232Y186691D01*
X763768Y186691D01*
X767036Y185337D01*
X769537Y182836D01*
X770891Y179568D01*
X770891Y176032D01*
X769537Y172764D01*
X767036Y170263D01*
X763768Y168909D01*
X760232Y168909D01*
G37*
%LPD*%
%LPC*%
G36*
X649223Y458723D02*
X649223Y458723D01*
X649223Y469139D01*
X652645Y469139D01*
X659639Y462145D01*
X659639Y458723D01*
X649223Y458723D01*
G37*
%LPD*%
%LPC*%
G36*
X674623Y458723D02*
X674623Y458723D01*
X674623Y469139D01*
X678045Y469139D01*
X685039Y462145D01*
X685039Y458723D01*
X674623Y458723D01*
G37*
%LPD*%
%LPC*%
G36*
X700023Y458723D02*
X700023Y458723D01*
X700023Y469139D01*
X703445Y469139D01*
X710439Y462145D01*
X710439Y458723D01*
X700023Y458723D01*
G37*
%LPD*%
%LPC*%
G36*
X700023Y433323D02*
X700023Y433323D01*
X700023Y443739D01*
X703445Y443739D01*
X710439Y436745D01*
X710439Y433323D01*
X700023Y433323D01*
G37*
%LPD*%
%LPC*%
G36*
X674623Y433323D02*
X674623Y433323D01*
X674623Y443739D01*
X678045Y443739D01*
X685039Y436745D01*
X685039Y433323D01*
X674623Y433323D01*
G37*
%LPD*%
%LPC*%
G36*
X649223Y433323D02*
X649223Y433323D01*
X649223Y443739D01*
X652645Y443739D01*
X659639Y436745D01*
X659639Y433323D01*
X649223Y433323D01*
G37*
%LPD*%
%LPC*%
G36*
X649223Y445261D02*
X649223Y445261D01*
X649223Y455677D01*
X659639Y455677D01*
X659639Y452255D01*
X652645Y445261D01*
X649223Y445261D01*
G37*
%LPD*%
%LPC*%
G36*
X700023Y419861D02*
X700023Y419861D01*
X700023Y430277D01*
X710439Y430277D01*
X710439Y426855D01*
X703445Y419861D01*
X700023Y419861D01*
G37*
%LPD*%
%LPC*%
G36*
X686561Y458723D02*
X686561Y458723D01*
X686561Y462145D01*
X693555Y469139D01*
X696977Y469139D01*
X696977Y458723D01*
X686561Y458723D01*
G37*
%LPD*%
%LPC*%
G36*
X635761Y433323D02*
X635761Y433323D01*
X635761Y436745D01*
X642755Y443739D01*
X646177Y443739D01*
X646177Y433323D01*
X635761Y433323D01*
G37*
%LPD*%
%LPC*%
G36*
X661161Y433323D02*
X661161Y433323D01*
X661161Y436745D01*
X668155Y443739D01*
X671577Y443739D01*
X671577Y433323D01*
X661161Y433323D01*
G37*
%LPD*%
%LPC*%
G36*
X686561Y433323D02*
X686561Y433323D01*
X686561Y436745D01*
X693555Y443739D01*
X696977Y443739D01*
X696977Y433323D01*
X686561Y433323D01*
G37*
%LPD*%
%LPC*%
G36*
X674623Y445261D02*
X674623Y445261D01*
X674623Y455677D01*
X685039Y455677D01*
X685039Y452255D01*
X678045Y445261D01*
X674623Y445261D01*
G37*
%LPD*%
%LPC*%
G36*
X649223Y419861D02*
X649223Y419861D01*
X649223Y430277D01*
X659639Y430277D01*
X659639Y426855D01*
X652645Y419861D01*
X649223Y419861D01*
G37*
%LPD*%
%LPC*%
G36*
X674623Y419861D02*
X674623Y419861D01*
X674623Y430277D01*
X685039Y430277D01*
X685039Y426855D01*
X678045Y419861D01*
X674623Y419861D01*
G37*
%LPD*%
%LPC*%
G36*
X661161Y458723D02*
X661161Y458723D01*
X661161Y462145D01*
X668155Y469139D01*
X671577Y469139D01*
X671577Y458723D01*
X661161Y458723D01*
G37*
%LPD*%
%LPC*%
G36*
X700023Y445261D02*
X700023Y445261D01*
X700023Y455677D01*
X710439Y455677D01*
X710439Y452255D01*
X703445Y445261D01*
X700023Y445261D01*
G37*
%LPD*%
%LPC*%
G36*
X635761Y458723D02*
X635761Y458723D01*
X635761Y462145D01*
X642755Y469139D01*
X646177Y469139D01*
X646177Y458723D01*
X635761Y458723D01*
G37*
%LPD*%
%LPC*%
G36*
X668155Y445261D02*
X668155Y445261D01*
X661161Y452255D01*
X661161Y455677D01*
X671577Y455677D01*
X671577Y445261D01*
X668155Y445261D01*
G37*
%LPD*%
%LPC*%
G36*
X642755Y445261D02*
X642755Y445261D01*
X635761Y452255D01*
X635761Y455677D01*
X646177Y455677D01*
X646177Y445261D01*
X642755Y445261D01*
G37*
%LPD*%
%LPC*%
G36*
X693555Y445261D02*
X693555Y445261D01*
X686561Y452255D01*
X686561Y455677D01*
X696977Y455677D01*
X696977Y445261D01*
X693555Y445261D01*
G37*
%LPD*%
%LPC*%
G36*
X642755Y419861D02*
X642755Y419861D01*
X635761Y426855D01*
X635761Y430277D01*
X646177Y430277D01*
X646177Y419861D01*
X642755Y419861D01*
G37*
%LPD*%
%LPC*%
G36*
X668155Y419861D02*
X668155Y419861D01*
X661161Y426855D01*
X661161Y430277D01*
X671577Y430277D01*
X671577Y419861D01*
X668155Y419861D01*
G37*
%LPD*%
%LPC*%
G36*
X693555Y419861D02*
X693555Y419861D01*
X686561Y426855D01*
X686561Y430277D01*
X696977Y430277D01*
X696977Y419861D01*
X693555Y419861D01*
G37*
%LPD*%
%LPC*%
G36*
X204723Y407923D02*
X204723Y407923D01*
X204723Y418246D01*
X205996Y418045D01*
X207783Y417464D01*
X209457Y416611D01*
X210978Y415506D01*
X212306Y414178D01*
X213411Y412657D01*
X214264Y410983D01*
X214845Y409196D01*
X215046Y407923D01*
X204723Y407923D01*
G37*
%LPD*%
%LPC*%
G36*
X204723Y255523D02*
X204723Y255523D01*
X204723Y265846D01*
X205996Y265645D01*
X207783Y265064D01*
X209457Y264211D01*
X210978Y263106D01*
X212306Y261778D01*
X213411Y260257D01*
X214264Y258583D01*
X214845Y256796D01*
X215046Y255523D01*
X204723Y255523D01*
G37*
%LPD*%
%LPC*%
G36*
X204723Y382523D02*
X204723Y382523D01*
X204723Y392846D01*
X205996Y392645D01*
X207783Y392064D01*
X209457Y391211D01*
X210978Y390106D01*
X212306Y388778D01*
X213411Y387257D01*
X214264Y385583D01*
X214845Y383796D01*
X215046Y382523D01*
X204723Y382523D01*
G37*
%LPD*%
%LPC*%
G36*
X268223Y458723D02*
X268223Y458723D01*
X268223Y469046D01*
X269496Y468845D01*
X271283Y468264D01*
X272957Y467411D01*
X274478Y466306D01*
X275806Y464978D01*
X276911Y463457D01*
X277764Y461783D01*
X278345Y459996D01*
X278546Y458723D01*
X268223Y458723D01*
G37*
%LPD*%
%LPC*%
G36*
X204723Y357123D02*
X204723Y357123D01*
X204723Y367446D01*
X205996Y367245D01*
X207783Y366664D01*
X209457Y365811D01*
X210978Y364706D01*
X212306Y363378D01*
X213411Y361857D01*
X214264Y360183D01*
X214845Y358396D01*
X215046Y357123D01*
X204723Y357123D01*
G37*
%LPD*%
%LPC*%
G36*
X204723Y331723D02*
X204723Y331723D01*
X204723Y342046D01*
X205996Y341845D01*
X207783Y341264D01*
X209457Y340411D01*
X210978Y339306D01*
X212306Y337978D01*
X213411Y336457D01*
X214264Y334783D01*
X214845Y332996D01*
X215046Y331723D01*
X204723Y331723D01*
G37*
%LPD*%
%LPC*%
G36*
X422249Y246481D02*
X422249Y246481D01*
X422249Y256804D01*
X423521Y256602D01*
X425309Y256022D01*
X426983Y255169D01*
X428503Y254064D01*
X429832Y252735D01*
X430937Y251215D01*
X431790Y249541D01*
X432370Y247753D01*
X432572Y246481D01*
X422249Y246481D01*
G37*
%LPD*%
%LPC*%
G36*
X204723Y280923D02*
X204723Y280923D01*
X204723Y291246D01*
X205996Y291045D01*
X207783Y290464D01*
X209457Y289611D01*
X210978Y288506D01*
X212306Y287178D01*
X213411Y285657D01*
X214264Y283983D01*
X214845Y282196D01*
X215046Y280923D01*
X204723Y280923D01*
G37*
%LPD*%
%LPC*%
G36*
X204723Y306323D02*
X204723Y306323D01*
X204723Y316646D01*
X205996Y316445D01*
X207783Y315864D01*
X209457Y315011D01*
X210978Y313906D01*
X212306Y312578D01*
X213411Y311057D01*
X214264Y309383D01*
X214845Y307596D01*
X215046Y306323D01*
X204723Y306323D01*
G37*
%LPD*%
%LPC*%
G36*
X204723Y303277D02*
X204723Y303277D01*
X215046Y303277D01*
X214845Y302004D01*
X214264Y300217D01*
X213411Y298543D01*
X212306Y297022D01*
X210978Y295694D01*
X209457Y294589D01*
X207783Y293736D01*
X205996Y293155D01*
X204723Y292954D01*
X204723Y303277D01*
G37*
%LPD*%
%LPC*%
G36*
X204723Y354077D02*
X204723Y354077D01*
X215046Y354077D01*
X214845Y352804D01*
X214264Y351017D01*
X213411Y349343D01*
X212306Y347822D01*
X210978Y346494D01*
X209457Y345389D01*
X207783Y344536D01*
X205996Y343955D01*
X204723Y343754D01*
X204723Y354077D01*
G37*
%LPD*%
%LPC*%
G36*
X191354Y306323D02*
X191354Y306323D01*
X191555Y307596D01*
X192136Y309383D01*
X192989Y311057D01*
X194094Y312578D01*
X195422Y313906D01*
X196943Y315011D01*
X198617Y315864D01*
X200404Y316445D01*
X201677Y316646D01*
X201677Y306323D01*
X191354Y306323D01*
G37*
%LPD*%
%LPC*%
G36*
X191354Y280923D02*
X191354Y280923D01*
X191555Y282196D01*
X192136Y283983D01*
X192989Y285657D01*
X194094Y287178D01*
X195422Y288506D01*
X196943Y289611D01*
X198617Y290464D01*
X200404Y291045D01*
X201677Y291246D01*
X201677Y280923D01*
X191354Y280923D01*
G37*
%LPD*%
%LPC*%
G36*
X268223Y455677D02*
X268223Y455677D01*
X278546Y455677D01*
X278345Y454404D01*
X277764Y452617D01*
X276911Y450943D01*
X275806Y449422D01*
X274478Y448094D01*
X272957Y446989D01*
X271283Y446136D01*
X269496Y445555D01*
X268223Y445354D01*
X268223Y455677D01*
G37*
%LPD*%
%LPC*%
G36*
X204723Y328677D02*
X204723Y328677D01*
X215046Y328677D01*
X214845Y327404D01*
X214264Y325617D01*
X213411Y323943D01*
X212306Y322422D01*
X210978Y321094D01*
X209457Y319989D01*
X207783Y319136D01*
X205996Y318555D01*
X204723Y318354D01*
X204723Y328677D01*
G37*
%LPD*%
%LPC*%
G36*
X191354Y331723D02*
X191354Y331723D01*
X191555Y332996D01*
X192136Y334783D01*
X192989Y336457D01*
X194094Y337978D01*
X195422Y339306D01*
X196943Y340411D01*
X198617Y341264D01*
X200404Y341845D01*
X201677Y342046D01*
X201677Y331723D01*
X191354Y331723D01*
G37*
%LPD*%
%LPC*%
G36*
X204723Y277877D02*
X204723Y277877D01*
X215046Y277877D01*
X214845Y276604D01*
X214264Y274817D01*
X213411Y273143D01*
X212306Y271622D01*
X210978Y270294D01*
X209457Y269189D01*
X207783Y268336D01*
X205996Y267755D01*
X204723Y267554D01*
X204723Y277877D01*
G37*
%LPD*%
%LPC*%
G36*
X408879Y246481D02*
X408879Y246481D01*
X409081Y247753D01*
X409662Y249541D01*
X410515Y251215D01*
X411619Y252735D01*
X412948Y254064D01*
X414468Y255169D01*
X416143Y256022D01*
X417930Y256602D01*
X419202Y256804D01*
X419202Y246481D01*
X408879Y246481D01*
G37*
%LPD*%
%LPC*%
G36*
X204723Y252477D02*
X204723Y252477D01*
X215046Y252477D01*
X214845Y251204D01*
X214264Y249417D01*
X213411Y247743D01*
X212306Y246222D01*
X210978Y244894D01*
X209457Y243789D01*
X207783Y242936D01*
X205996Y242355D01*
X204723Y242154D01*
X204723Y252477D01*
G37*
%LPD*%
%LPC*%
G36*
X254854Y458723D02*
X254854Y458723D01*
X255055Y459996D01*
X255636Y461783D01*
X256489Y463457D01*
X257594Y464978D01*
X258922Y466306D01*
X260443Y467411D01*
X262117Y468264D01*
X263904Y468845D01*
X265177Y469046D01*
X265177Y458723D01*
X254854Y458723D01*
G37*
%LPD*%
%LPC*%
G36*
X422249Y243434D02*
X422249Y243434D01*
X432572Y243434D01*
X432370Y242162D01*
X431790Y240375D01*
X430937Y238700D01*
X429832Y237180D01*
X428503Y235851D01*
X426983Y234747D01*
X425309Y233894D01*
X423521Y233313D01*
X422249Y233111D01*
X422249Y243434D01*
G37*
%LPD*%
%LPC*%
G36*
X191354Y407923D02*
X191354Y407923D01*
X191555Y409196D01*
X192136Y410983D01*
X192989Y412657D01*
X194094Y414178D01*
X195422Y415506D01*
X196943Y416611D01*
X198617Y417464D01*
X200404Y418045D01*
X201677Y418246D01*
X201677Y407923D01*
X191354Y407923D01*
G37*
%LPD*%
%LPC*%
G36*
X191354Y357123D02*
X191354Y357123D01*
X191555Y358396D01*
X192136Y360183D01*
X192989Y361857D01*
X194094Y363378D01*
X195422Y364706D01*
X196943Y365811D01*
X198617Y366664D01*
X200404Y367245D01*
X201677Y367446D01*
X201677Y357123D01*
X191354Y357123D01*
G37*
%LPD*%
%LPC*%
G36*
X204723Y379477D02*
X204723Y379477D01*
X215046Y379477D01*
X214845Y378204D01*
X214264Y376417D01*
X213411Y374743D01*
X212306Y373222D01*
X210978Y371894D01*
X209457Y370789D01*
X207783Y369936D01*
X205996Y369355D01*
X204723Y369154D01*
X204723Y379477D01*
G37*
%LPD*%
%LPC*%
G36*
X191354Y255523D02*
X191354Y255523D01*
X191555Y256796D01*
X192136Y258583D01*
X192989Y260257D01*
X194094Y261778D01*
X195422Y263106D01*
X196943Y264211D01*
X198617Y265064D01*
X200404Y265645D01*
X201677Y265846D01*
X201677Y255523D01*
X191354Y255523D01*
G37*
%LPD*%
%LPC*%
G36*
X204723Y404877D02*
X204723Y404877D01*
X215046Y404877D01*
X214845Y403604D01*
X214264Y401817D01*
X213411Y400143D01*
X212306Y398622D01*
X210978Y397294D01*
X209457Y396189D01*
X207783Y395336D01*
X205996Y394755D01*
X204723Y394554D01*
X204723Y404877D01*
G37*
%LPD*%
%LPC*%
G36*
X191354Y382523D02*
X191354Y382523D01*
X191555Y383796D01*
X192136Y385583D01*
X192989Y387257D01*
X194094Y388778D01*
X195422Y390106D01*
X196943Y391211D01*
X198617Y392064D01*
X200404Y392645D01*
X201677Y392846D01*
X201677Y382523D01*
X191354Y382523D01*
G37*
%LPD*%
%LPC*%
G36*
X200404Y293155D02*
X200404Y293155D01*
X198617Y293736D01*
X196943Y294589D01*
X195422Y295694D01*
X194094Y297022D01*
X192989Y298543D01*
X192136Y300217D01*
X191555Y302004D01*
X191354Y303277D01*
X201677Y303277D01*
X201677Y292954D01*
X200404Y293155D01*
G37*
%LPD*%
%LPC*%
G36*
X200404Y242355D02*
X200404Y242355D01*
X198617Y242936D01*
X196943Y243789D01*
X195422Y244894D01*
X194094Y246222D01*
X192989Y247743D01*
X192136Y249417D01*
X191555Y251204D01*
X191354Y252477D01*
X201677Y252477D01*
X201677Y242154D01*
X200404Y242355D01*
G37*
%LPD*%
%LPC*%
G36*
X200404Y394755D02*
X200404Y394755D01*
X198617Y395336D01*
X196943Y396189D01*
X195422Y397294D01*
X194094Y398622D01*
X192989Y400143D01*
X192136Y401817D01*
X191555Y403604D01*
X191354Y404877D01*
X201677Y404877D01*
X201677Y394554D01*
X200404Y394755D01*
G37*
%LPD*%
%LPC*%
G36*
X263904Y445555D02*
X263904Y445555D01*
X262117Y446136D01*
X260443Y446989D01*
X258922Y448094D01*
X257594Y449422D01*
X256489Y450943D01*
X255636Y452617D01*
X255055Y454404D01*
X254854Y455677D01*
X265177Y455677D01*
X265177Y445354D01*
X263904Y445555D01*
G37*
%LPD*%
%LPC*%
G36*
X200404Y369355D02*
X200404Y369355D01*
X198617Y369936D01*
X196943Y370789D01*
X195422Y371894D01*
X194094Y373222D01*
X192989Y374743D01*
X192136Y376417D01*
X191555Y378204D01*
X191354Y379477D01*
X201677Y379477D01*
X201677Y369154D01*
X200404Y369355D01*
G37*
%LPD*%
%LPC*%
G36*
X200404Y267755D02*
X200404Y267755D01*
X198617Y268336D01*
X196943Y269189D01*
X195422Y270294D01*
X194094Y271622D01*
X192989Y273143D01*
X192136Y274817D01*
X191555Y276604D01*
X191354Y277877D01*
X201677Y277877D01*
X201677Y267554D01*
X200404Y267755D01*
G37*
%LPD*%
%LPC*%
G36*
X200404Y318555D02*
X200404Y318555D01*
X198617Y319136D01*
X196943Y319989D01*
X195422Y321094D01*
X194094Y322422D01*
X192989Y323943D01*
X192136Y325617D01*
X191555Y327404D01*
X191354Y328677D01*
X201677Y328677D01*
X201677Y318354D01*
X200404Y318555D01*
G37*
%LPD*%
%LPC*%
G36*
X417930Y233313D02*
X417930Y233313D01*
X416143Y233894D01*
X414468Y234747D01*
X412948Y235851D01*
X411619Y237180D01*
X410515Y238700D01*
X409662Y240375D01*
X409081Y242162D01*
X408879Y243434D01*
X419202Y243434D01*
X419202Y233111D01*
X417930Y233313D01*
G37*
%LPD*%
%LPC*%
G36*
X200404Y343955D02*
X200404Y343955D01*
X198617Y344536D01*
X196943Y345389D01*
X195422Y346494D01*
X194094Y347822D01*
X192989Y349343D01*
X192136Y351017D01*
X191555Y352804D01*
X191354Y354077D01*
X201677Y354077D01*
X201677Y343754D01*
X200404Y343955D01*
G37*
%LPD*%
%LPC*%
G36*
X814323Y179323D02*
X814323Y179323D01*
X814323Y187589D01*
X815120Y187463D01*
X816603Y186981D01*
X817992Y186273D01*
X819254Y185356D01*
X820356Y184254D01*
X821273Y182992D01*
X821981Y181603D01*
X822463Y180120D01*
X822589Y179323D01*
X814323Y179323D01*
G37*
%LPD*%
%LPC*%
G36*
X458723Y26923D02*
X458723Y26923D01*
X458723Y35189D01*
X459520Y35063D01*
X461003Y34581D01*
X462392Y33873D01*
X463654Y32956D01*
X464756Y31854D01*
X465673Y30592D01*
X466381Y29203D01*
X466863Y27720D01*
X466989Y26923D01*
X458723Y26923D01*
G37*
%LPD*%
%LPC*%
G36*
X447411Y26923D02*
X447411Y26923D01*
X447537Y27720D01*
X448019Y29203D01*
X448727Y30592D01*
X449644Y31854D01*
X450746Y32956D01*
X452008Y33873D01*
X453397Y34581D01*
X454880Y35063D01*
X455677Y35189D01*
X455677Y26923D01*
X447411Y26923D01*
G37*
%LPD*%
%LPC*%
G36*
X814323Y176277D02*
X814323Y176277D01*
X822589Y176277D01*
X822463Y175480D01*
X821981Y173997D01*
X821273Y172608D01*
X820356Y171346D01*
X819254Y170244D01*
X817992Y169327D01*
X816603Y168619D01*
X815120Y168137D01*
X814323Y168011D01*
X814323Y176277D01*
G37*
%LPD*%
%LPC*%
G36*
X458723Y23877D02*
X458723Y23877D01*
X466989Y23877D01*
X466863Y23080D01*
X466381Y21597D01*
X465673Y20208D01*
X464756Y18946D01*
X463654Y17844D01*
X462392Y16927D01*
X461003Y16219D01*
X459520Y15737D01*
X458723Y15611D01*
X458723Y23877D01*
G37*
%LPD*%
%LPC*%
G36*
X803011Y179323D02*
X803011Y179323D01*
X803137Y180120D01*
X803619Y181603D01*
X804327Y182992D01*
X805244Y184254D01*
X806346Y185356D01*
X807608Y186273D01*
X808997Y186981D01*
X810480Y187463D01*
X811277Y187589D01*
X811277Y179323D01*
X803011Y179323D01*
G37*
%LPD*%
%LPC*%
G36*
X810480Y168137D02*
X810480Y168137D01*
X808997Y168619D01*
X807608Y169327D01*
X806346Y170244D01*
X805244Y171346D01*
X804327Y172608D01*
X803619Y173997D01*
X803137Y175480D01*
X803011Y176277D01*
X811277Y176277D01*
X811277Y168011D01*
X810480Y168137D01*
G37*
%LPD*%
%LPC*%
G36*
X454880Y15737D02*
X454880Y15737D01*
X453397Y16219D01*
X452008Y16927D01*
X450746Y17844D01*
X449644Y18946D01*
X448727Y20208D01*
X448019Y21597D01*
X447537Y23080D01*
X447411Y23877D01*
X455677Y23877D01*
X455677Y15611D01*
X454880Y15737D01*
G37*
%LPD*%
%LPC*%
G36*
X420725Y244957D02*
X420725Y244957D01*
X420725Y244958D01*
X420726Y244958D01*
X420726Y244957D01*
X420725Y244957D01*
G37*
%LPD*%
%LPC*%
G36*
X203199Y253999D02*
X203199Y253999D01*
X203199Y254001D01*
X203201Y254001D01*
X203201Y253999D01*
X203199Y253999D01*
G37*
%LPD*%
%LPC*%
G36*
X203199Y279399D02*
X203199Y279399D01*
X203199Y279401D01*
X203201Y279401D01*
X203201Y279399D01*
X203199Y279399D01*
G37*
%LPD*%
%LPC*%
G36*
X812799Y177799D02*
X812799Y177799D01*
X812799Y177801D01*
X812801Y177801D01*
X812801Y177799D01*
X812799Y177799D01*
G37*
%LPD*%
%LPC*%
G36*
X203199Y330199D02*
X203199Y330199D01*
X203199Y330201D01*
X203201Y330201D01*
X203201Y330199D01*
X203199Y330199D01*
G37*
%LPD*%
%LPC*%
G36*
X203199Y355599D02*
X203199Y355599D01*
X203199Y355601D01*
X203201Y355601D01*
X203201Y355599D01*
X203199Y355599D01*
G37*
%LPD*%
%LPC*%
G36*
X203199Y380999D02*
X203199Y380999D01*
X203199Y381001D01*
X203201Y381001D01*
X203201Y380999D01*
X203199Y380999D01*
G37*
%LPD*%
%LPC*%
G36*
X203199Y406399D02*
X203199Y406399D01*
X203199Y406401D01*
X203201Y406401D01*
X203201Y406399D01*
X203199Y406399D01*
G37*
%LPD*%
%LPC*%
G36*
X647699Y431799D02*
X647699Y431799D01*
X647699Y431801D01*
X647701Y431801D01*
X647701Y431799D01*
X647699Y431799D01*
G37*
%LPD*%
%LPC*%
G36*
X673099Y431799D02*
X673099Y431799D01*
X673099Y431801D01*
X673101Y431801D01*
X673101Y431799D01*
X673099Y431799D01*
G37*
%LPD*%
%LPC*%
G36*
X698499Y431799D02*
X698499Y431799D01*
X698499Y431801D01*
X698501Y431801D01*
X698501Y431799D01*
X698499Y431799D01*
G37*
%LPD*%
%LPC*%
G36*
X266699Y457199D02*
X266699Y457199D01*
X266699Y457201D01*
X266701Y457201D01*
X266701Y457199D01*
X266699Y457199D01*
G37*
%LPD*%
%LPC*%
G36*
X647699Y457199D02*
X647699Y457199D01*
X647699Y457201D01*
X647701Y457201D01*
X647701Y457199D01*
X647699Y457199D01*
G37*
%LPD*%
%LPC*%
G36*
X673099Y457199D02*
X673099Y457199D01*
X673099Y457201D01*
X673101Y457201D01*
X673101Y457199D01*
X673099Y457199D01*
G37*
%LPD*%
%LPC*%
G36*
X457199Y25399D02*
X457199Y25399D01*
X457199Y25401D01*
X457201Y25401D01*
X457201Y25399D01*
X457199Y25399D01*
G37*
%LPD*%
%LPC*%
G36*
X698499Y457199D02*
X698499Y457199D01*
X698499Y457201D01*
X698501Y457201D01*
X698501Y457199D01*
X698499Y457199D01*
G37*
%LPD*%
%LPC*%
G36*
X203199Y304799D02*
X203199Y304799D01*
X203199Y304801D01*
X203201Y304801D01*
X203201Y304799D01*
X203199Y304799D01*
G37*
%LPD*%
D10*
X117500Y0D02*
X117500Y-117036D01*
X900000Y-117036D02*
X900000Y0D01*
X899350Y-97536D02*
X118150Y-97536D01*
X143500Y-94344D01*
X143500Y-100728D01*
X118150Y-97536D01*
X143500Y-96236D01*
X143500Y-98836D02*
X118150Y-97536D01*
X143500Y-94936D01*
X143500Y-100136D02*
X118150Y-97536D01*
X874000Y-94344D02*
X899350Y-97536D01*
X874000Y-94344D02*
X874000Y-100728D01*
X899350Y-97536D01*
X874000Y-96236D01*
X874000Y-98836D02*
X899350Y-97536D01*
X874000Y-94936D01*
X874000Y-100136D02*
X899350Y-97536D01*
X508750Y-3192D02*
X508750Y3192D01*
X505558Y0D02*
X511942Y0D01*
D11*
X539809Y-74773D02*
X539809Y-76579D01*
X539809Y-74773D02*
X530778Y-74773D01*
X535293Y-91029D01*
X524178Y-86513D02*
X524176Y-86380D01*
X524170Y-86248D01*
X524160Y-86116D01*
X524147Y-85984D01*
X524129Y-85852D01*
X524108Y-85722D01*
X524083Y-85591D01*
X524054Y-85462D01*
X524021Y-85334D01*
X523985Y-85206D01*
X523945Y-85080D01*
X523901Y-84955D01*
X523853Y-84831D01*
X523802Y-84709D01*
X523747Y-84588D01*
X523689Y-84469D01*
X523627Y-84351D01*
X523562Y-84236D01*
X523493Y-84122D01*
X523422Y-84011D01*
X523346Y-83902D01*
X523268Y-83795D01*
X523187Y-83690D01*
X523102Y-83588D01*
X523015Y-83488D01*
X522925Y-83391D01*
X522832Y-83296D01*
X522736Y-83205D01*
X522638Y-83116D01*
X522537Y-83030D01*
X522433Y-82947D01*
X522327Y-82867D01*
X522219Y-82791D01*
X522109Y-82717D01*
X521996Y-82647D01*
X521882Y-82580D01*
X521765Y-82517D01*
X521647Y-82457D01*
X521527Y-82400D01*
X521405Y-82347D01*
X521282Y-82298D01*
X521158Y-82252D01*
X521032Y-82210D01*
X520905Y-82172D01*
X520777Y-82137D01*
X520648Y-82106D01*
X520519Y-82079D01*
X520388Y-82056D01*
X520257Y-82036D01*
X520125Y-82021D01*
X519993Y-82009D01*
X519861Y-82001D01*
X519728Y-81997D01*
X519596Y-81997D01*
X519463Y-82001D01*
X519331Y-82009D01*
X519199Y-82021D01*
X519067Y-82036D01*
X518936Y-82056D01*
X518805Y-82079D01*
X518676Y-82106D01*
X518547Y-82137D01*
X518419Y-82172D01*
X518292Y-82210D01*
X518166Y-82252D01*
X518042Y-82298D01*
X517919Y-82347D01*
X517797Y-82400D01*
X517677Y-82457D01*
X517559Y-82517D01*
X517442Y-82580D01*
X517328Y-82647D01*
X517215Y-82717D01*
X517105Y-82791D01*
X516997Y-82867D01*
X516891Y-82947D01*
X516787Y-83030D01*
X516686Y-83116D01*
X516588Y-83205D01*
X516492Y-83296D01*
X516399Y-83391D01*
X516309Y-83488D01*
X516222Y-83588D01*
X516137Y-83690D01*
X516056Y-83795D01*
X515978Y-83902D01*
X515902Y-84011D01*
X515831Y-84122D01*
X515762Y-84236D01*
X515697Y-84351D01*
X515635Y-84469D01*
X515577Y-84588D01*
X515522Y-84709D01*
X515471Y-84831D01*
X515423Y-84955D01*
X515379Y-85080D01*
X515339Y-85206D01*
X515303Y-85334D01*
X515270Y-85462D01*
X515241Y-85591D01*
X515216Y-85722D01*
X515195Y-85852D01*
X515177Y-85984D01*
X515164Y-86116D01*
X515154Y-86248D01*
X515148Y-86380D01*
X515146Y-86513D01*
X515148Y-86646D01*
X515154Y-86778D01*
X515164Y-86910D01*
X515177Y-87042D01*
X515195Y-87174D01*
X515216Y-87304D01*
X515241Y-87435D01*
X515270Y-87564D01*
X515303Y-87692D01*
X515339Y-87820D01*
X515379Y-87946D01*
X515423Y-88071D01*
X515471Y-88195D01*
X515522Y-88317D01*
X515577Y-88438D01*
X515635Y-88557D01*
X515697Y-88675D01*
X515762Y-88790D01*
X515831Y-88904D01*
X515902Y-89015D01*
X515978Y-89124D01*
X516056Y-89231D01*
X516137Y-89336D01*
X516222Y-89438D01*
X516309Y-89538D01*
X516399Y-89635D01*
X516492Y-89730D01*
X516588Y-89821D01*
X516686Y-89910D01*
X516787Y-89996D01*
X516891Y-90079D01*
X516997Y-90159D01*
X517105Y-90235D01*
X517215Y-90309D01*
X517328Y-90379D01*
X517442Y-90446D01*
X517559Y-90509D01*
X517677Y-90569D01*
X517797Y-90626D01*
X517919Y-90679D01*
X518042Y-90728D01*
X518166Y-90774D01*
X518292Y-90816D01*
X518419Y-90854D01*
X518547Y-90889D01*
X518676Y-90920D01*
X518805Y-90947D01*
X518936Y-90970D01*
X519067Y-90990D01*
X519199Y-91005D01*
X519331Y-91017D01*
X519463Y-91025D01*
X519596Y-91029D01*
X519728Y-91029D01*
X519861Y-91025D01*
X519993Y-91017D01*
X520125Y-91005D01*
X520257Y-90990D01*
X520388Y-90970D01*
X520519Y-90947D01*
X520648Y-90920D01*
X520777Y-90889D01*
X520905Y-90854D01*
X521032Y-90816D01*
X521158Y-90774D01*
X521282Y-90728D01*
X521405Y-90679D01*
X521527Y-90626D01*
X521647Y-90569D01*
X521765Y-90509D01*
X521882Y-90446D01*
X521996Y-90379D01*
X522109Y-90309D01*
X522219Y-90235D01*
X522327Y-90159D01*
X522433Y-90079D01*
X522537Y-89996D01*
X522638Y-89910D01*
X522736Y-89821D01*
X522832Y-89730D01*
X522925Y-89635D01*
X523015Y-89538D01*
X523102Y-89438D01*
X523187Y-89336D01*
X523268Y-89231D01*
X523346Y-89124D01*
X523422Y-89015D01*
X523493Y-88904D01*
X523562Y-88790D01*
X523627Y-88675D01*
X523689Y-88557D01*
X523747Y-88438D01*
X523802Y-88317D01*
X523853Y-88195D01*
X523901Y-88071D01*
X523945Y-87946D01*
X523985Y-87820D01*
X524021Y-87692D01*
X524054Y-87564D01*
X524083Y-87435D01*
X524108Y-87304D01*
X524129Y-87174D01*
X524147Y-87042D01*
X524160Y-86910D01*
X524170Y-86778D01*
X524176Y-86646D01*
X524178Y-86513D01*
X523274Y-78385D02*
X523272Y-78266D01*
X523266Y-78146D01*
X523256Y-78027D01*
X523242Y-77909D01*
X523225Y-77790D01*
X523203Y-77673D01*
X523178Y-77556D01*
X523148Y-77441D01*
X523115Y-77326D01*
X523078Y-77212D01*
X523038Y-77100D01*
X522993Y-76989D01*
X522945Y-76880D01*
X522894Y-76772D01*
X522839Y-76666D01*
X522780Y-76562D01*
X522718Y-76460D01*
X522653Y-76360D01*
X522584Y-76262D01*
X522512Y-76166D01*
X522437Y-76073D01*
X522360Y-75983D01*
X522279Y-75895D01*
X522195Y-75810D01*
X522108Y-75728D01*
X522019Y-75648D01*
X521927Y-75572D01*
X521833Y-75498D01*
X521736Y-75428D01*
X521638Y-75361D01*
X521537Y-75297D01*
X521433Y-75237D01*
X521328Y-75180D01*
X521221Y-75127D01*
X521113Y-75077D01*
X521003Y-75031D01*
X520891Y-74989D01*
X520778Y-74950D01*
X520664Y-74915D01*
X520549Y-74884D01*
X520432Y-74856D01*
X520315Y-74833D01*
X520198Y-74813D01*
X520079Y-74797D01*
X519960Y-74785D01*
X519841Y-74777D01*
X519722Y-74773D01*
X519602Y-74773D01*
X519483Y-74777D01*
X519364Y-74785D01*
X519245Y-74797D01*
X519126Y-74813D01*
X519009Y-74833D01*
X518892Y-74856D01*
X518775Y-74884D01*
X518660Y-74915D01*
X518546Y-74950D01*
X518433Y-74989D01*
X518321Y-75031D01*
X518211Y-75077D01*
X518103Y-75127D01*
X517996Y-75180D01*
X517891Y-75237D01*
X517787Y-75297D01*
X517686Y-75361D01*
X517588Y-75428D01*
X517491Y-75498D01*
X517397Y-75572D01*
X517305Y-75648D01*
X517216Y-75728D01*
X517129Y-75810D01*
X517045Y-75895D01*
X516964Y-75983D01*
X516887Y-76073D01*
X516812Y-76166D01*
X516740Y-76262D01*
X516671Y-76360D01*
X516606Y-76460D01*
X516544Y-76562D01*
X516485Y-76666D01*
X516430Y-76772D01*
X516379Y-76880D01*
X516331Y-76989D01*
X516286Y-77100D01*
X516246Y-77212D01*
X516209Y-77326D01*
X516176Y-77441D01*
X516146Y-77556D01*
X516121Y-77673D01*
X516099Y-77790D01*
X516082Y-77909D01*
X516068Y-78027D01*
X516058Y-78146D01*
X516052Y-78266D01*
X516050Y-78385D01*
X516052Y-78504D01*
X516058Y-78624D01*
X516068Y-78743D01*
X516082Y-78861D01*
X516099Y-78980D01*
X516121Y-79097D01*
X516146Y-79214D01*
X516176Y-79329D01*
X516209Y-79444D01*
X516246Y-79558D01*
X516286Y-79670D01*
X516331Y-79781D01*
X516379Y-79890D01*
X516430Y-79998D01*
X516485Y-80104D01*
X516544Y-80208D01*
X516606Y-80310D01*
X516671Y-80410D01*
X516740Y-80508D01*
X516812Y-80604D01*
X516887Y-80697D01*
X516964Y-80787D01*
X517045Y-80875D01*
X517129Y-80960D01*
X517216Y-81042D01*
X517305Y-81122D01*
X517397Y-81198D01*
X517491Y-81272D01*
X517588Y-81342D01*
X517686Y-81409D01*
X517787Y-81473D01*
X517891Y-81533D01*
X517996Y-81590D01*
X518103Y-81643D01*
X518211Y-81693D01*
X518321Y-81739D01*
X518433Y-81781D01*
X518546Y-81820D01*
X518660Y-81855D01*
X518775Y-81886D01*
X518892Y-81914D01*
X519009Y-81937D01*
X519126Y-81957D01*
X519245Y-81973D01*
X519364Y-81985D01*
X519483Y-81993D01*
X519602Y-81997D01*
X519722Y-81997D01*
X519841Y-81993D01*
X519960Y-81985D01*
X520079Y-81973D01*
X520198Y-81957D01*
X520315Y-81937D01*
X520432Y-81914D01*
X520549Y-81886D01*
X520664Y-81855D01*
X520778Y-81820D01*
X520891Y-81781D01*
X521003Y-81739D01*
X521113Y-81693D01*
X521221Y-81643D01*
X521328Y-81590D01*
X521433Y-81533D01*
X521537Y-81473D01*
X521638Y-81409D01*
X521736Y-81342D01*
X521833Y-81272D01*
X521927Y-81198D01*
X522019Y-81122D01*
X522108Y-81042D01*
X522195Y-80960D01*
X522279Y-80875D01*
X522360Y-80787D01*
X522437Y-80697D01*
X522512Y-80604D01*
X522584Y-80508D01*
X522653Y-80410D01*
X522718Y-80310D01*
X522780Y-80208D01*
X522839Y-80104D01*
X522894Y-79998D01*
X522945Y-79890D01*
X522993Y-79781D01*
X523038Y-79670D01*
X523078Y-79558D01*
X523115Y-79444D01*
X523148Y-79329D01*
X523178Y-79214D01*
X523203Y-79097D01*
X523225Y-78980D01*
X523242Y-78861D01*
X523256Y-78743D01*
X523266Y-78624D01*
X523272Y-78504D01*
X523274Y-78385D01*
X509172Y-90126D02*
X509172Y-91029D01*
X509172Y-90126D02*
X508269Y-90126D01*
X508269Y-91029D01*
X509172Y-91029D01*
X493263Y-78837D02*
X493265Y-78712D01*
X493271Y-78587D01*
X493280Y-78462D01*
X493294Y-78338D01*
X493311Y-78214D01*
X493332Y-78090D01*
X493357Y-77968D01*
X493386Y-77846D01*
X493418Y-77725D01*
X493454Y-77605D01*
X493494Y-77486D01*
X493537Y-77369D01*
X493584Y-77253D01*
X493635Y-77138D01*
X493689Y-77026D01*
X493747Y-76914D01*
X493807Y-76805D01*
X493872Y-76698D01*
X493939Y-76592D01*
X494010Y-76489D01*
X494084Y-76388D01*
X494161Y-76289D01*
X494241Y-76193D01*
X494324Y-76099D01*
X494409Y-76008D01*
X494498Y-75919D01*
X494589Y-75834D01*
X494683Y-75751D01*
X494779Y-75671D01*
X494878Y-75594D01*
X494979Y-75520D01*
X495082Y-75449D01*
X495188Y-75382D01*
X495295Y-75317D01*
X495404Y-75257D01*
X495516Y-75199D01*
X495628Y-75145D01*
X495743Y-75094D01*
X495859Y-75047D01*
X495976Y-75004D01*
X496095Y-74964D01*
X496215Y-74928D01*
X496336Y-74896D01*
X496458Y-74867D01*
X496580Y-74842D01*
X496704Y-74821D01*
X496828Y-74804D01*
X496952Y-74790D01*
X497077Y-74781D01*
X497202Y-74775D01*
X497327Y-74773D01*
X497470Y-74775D01*
X497612Y-74781D01*
X497755Y-74791D01*
X497897Y-74804D01*
X498038Y-74822D01*
X498180Y-74843D01*
X498320Y-74868D01*
X498460Y-74897D01*
X498599Y-74930D01*
X498737Y-74967D01*
X498874Y-75007D01*
X499009Y-75051D01*
X499144Y-75099D01*
X499277Y-75151D01*
X499409Y-75206D01*
X499539Y-75265D01*
X499667Y-75327D01*
X499794Y-75393D01*
X499919Y-75462D01*
X500042Y-75534D01*
X500163Y-75610D01*
X500281Y-75689D01*
X500398Y-75772D01*
X500512Y-75857D01*
X500624Y-75946D01*
X500733Y-76037D01*
X500840Y-76132D01*
X500945Y-76229D01*
X501046Y-76330D01*
X501145Y-76433D01*
X501241Y-76539D01*
X501334Y-76647D01*
X501424Y-76758D01*
X501511Y-76871D01*
X501595Y-76986D01*
X501675Y-77104D01*
X501753Y-77224D01*
X501827Y-77346D01*
X501897Y-77470D01*
X501965Y-77596D01*
X502029Y-77724D01*
X502089Y-77853D01*
X502146Y-77984D01*
X502199Y-78116D01*
X502248Y-78250D01*
X502294Y-78385D01*
X494618Y-81998D02*
X494524Y-81906D01*
X494434Y-81812D01*
X494346Y-81715D01*
X494261Y-81615D01*
X494179Y-81513D01*
X494101Y-81408D01*
X494025Y-81301D01*
X493953Y-81192D01*
X493884Y-81081D01*
X493818Y-80967D01*
X493756Y-80852D01*
X493697Y-80735D01*
X493642Y-80616D01*
X493591Y-80496D01*
X493543Y-80374D01*
X493498Y-80251D01*
X493458Y-80127D01*
X493421Y-80001D01*
X493388Y-79874D01*
X493359Y-79747D01*
X493333Y-79618D01*
X493312Y-79489D01*
X493294Y-79359D01*
X493281Y-79229D01*
X493271Y-79099D01*
X493265Y-78968D01*
X493263Y-78837D01*
X494617Y-81998D02*
X502294Y-91029D01*
X493263Y-91029D01*
X486663Y-91029D02*
X481244Y-91029D01*
X481126Y-91027D01*
X481008Y-91021D01*
X480890Y-91012D01*
X480773Y-90998D01*
X480656Y-90981D01*
X480539Y-90960D01*
X480424Y-90935D01*
X480309Y-90906D01*
X480195Y-90873D01*
X480083Y-90837D01*
X479972Y-90797D01*
X479862Y-90754D01*
X479753Y-90707D01*
X479646Y-90657D01*
X479541Y-90602D01*
X479438Y-90545D01*
X479337Y-90484D01*
X479237Y-90420D01*
X479140Y-90353D01*
X479045Y-90283D01*
X478953Y-90209D01*
X478862Y-90133D01*
X478775Y-90053D01*
X478690Y-89971D01*
X478608Y-89886D01*
X478528Y-89799D01*
X478452Y-89708D01*
X478378Y-89616D01*
X478308Y-89521D01*
X478241Y-89424D01*
X478177Y-89324D01*
X478116Y-89223D01*
X478059Y-89120D01*
X478004Y-89015D01*
X477954Y-88908D01*
X477907Y-88799D01*
X477864Y-88689D01*
X477824Y-88578D01*
X477788Y-88466D01*
X477755Y-88352D01*
X477726Y-88237D01*
X477701Y-88122D01*
X477680Y-88005D01*
X477663Y-87888D01*
X477649Y-87771D01*
X477640Y-87653D01*
X477634Y-87535D01*
X477632Y-87417D01*
X477632Y-85610D01*
X477634Y-85492D01*
X477640Y-85374D01*
X477649Y-85256D01*
X477663Y-85139D01*
X477680Y-85022D01*
X477701Y-84905D01*
X477726Y-84790D01*
X477755Y-84675D01*
X477788Y-84561D01*
X477824Y-84449D01*
X477864Y-84338D01*
X477907Y-84228D01*
X477954Y-84119D01*
X478004Y-84012D01*
X478059Y-83907D01*
X478116Y-83804D01*
X478177Y-83703D01*
X478241Y-83603D01*
X478308Y-83506D01*
X478378Y-83411D01*
X478452Y-83319D01*
X478528Y-83228D01*
X478608Y-83141D01*
X478690Y-83056D01*
X478775Y-82974D01*
X478862Y-82894D01*
X478953Y-82818D01*
X479045Y-82744D01*
X479140Y-82674D01*
X479237Y-82607D01*
X479337Y-82543D01*
X479438Y-82482D01*
X479541Y-82425D01*
X479646Y-82370D01*
X479753Y-82320D01*
X479862Y-82273D01*
X479972Y-82230D01*
X480083Y-82190D01*
X480195Y-82154D01*
X480309Y-82121D01*
X480424Y-82092D01*
X480539Y-82067D01*
X480656Y-82046D01*
X480773Y-82029D01*
X480890Y-82015D01*
X481008Y-82006D01*
X481126Y-82000D01*
X481244Y-81998D01*
X486663Y-81998D01*
X486663Y-74773D01*
X477632Y-74773D01*
D12*
X598526Y270358D03*
X598526Y244958D03*
X573126Y270358D03*
X573126Y244958D03*
X547726Y270358D03*
X547726Y244958D03*
X522326Y270358D03*
X522326Y244958D03*
X496926Y270358D03*
X496926Y244958D03*
X471526Y270358D03*
X471526Y244958D03*
X446126Y270358D03*
X446126Y244958D03*
X420726Y270358D03*
X420726Y244958D03*
X203200Y406400D03*
X228600Y406400D03*
X203200Y381000D03*
X228600Y381000D03*
X203200Y355600D03*
X228600Y355600D03*
X203200Y330200D03*
X228600Y330200D03*
X203200Y304800D03*
X228600Y304800D03*
X203200Y279400D03*
X228600Y279400D03*
X203200Y254000D03*
X228600Y254000D03*
X203200Y228600D03*
X228600Y228600D03*
X266700Y457200D03*
X292100Y457200D03*
X317500Y457200D03*
X342900Y457200D03*
X368300Y457200D03*
X393700Y457200D03*
X419100Y457200D03*
X444500Y457200D03*
D13*
X622300Y431800D03*
X622300Y457200D03*
X647700Y431800D03*
X647700Y457200D03*
X673100Y431800D03*
X673100Y457200D03*
X698500Y431800D03*
X698500Y457200D03*
X723900Y431800D03*
X723900Y457200D03*
X749300Y431800D03*
X749300Y457200D03*
X774700Y431800D03*
X774700Y457200D03*
X800100Y431800D03*
X800100Y457200D03*
D14*
X762000Y177800D03*
X736600Y177800D03*
X711200Y177800D03*
X685800Y177800D03*
X660400Y177800D03*
X635000Y177800D03*
X609600Y177800D03*
X584200Y177800D03*
X558800Y177800D03*
X533400Y177800D03*
X508000Y177800D03*
X482600Y177800D03*
X482600Y25400D03*
X508000Y25400D03*
X533400Y25400D03*
X558800Y25400D03*
X584200Y25400D03*
X609600Y25400D03*
X635000Y25400D03*
X660400Y25400D03*
X685800Y25400D03*
X711200Y25400D03*
X736600Y25400D03*
X787400Y177800D03*
X762000Y25400D03*
X787400Y25400D03*
X812800Y177800D03*
X812800Y25400D03*
X457200Y177800D03*
X457200Y25400D03*
X431800Y177800D03*
X406400Y177800D03*
X381000Y177800D03*
X355600Y177800D03*
X330200Y177800D03*
X304800Y177800D03*
X279400Y177800D03*
X254000Y177800D03*
X228600Y177800D03*
X228600Y25400D03*
X254000Y25400D03*
X279400Y25400D03*
X304800Y25400D03*
X330200Y25400D03*
X355600Y25400D03*
X381000Y25400D03*
X406400Y25400D03*
X431800Y25400D03*
X355600Y152400D03*
X355600Y101600D03*
X355600Y76200D03*
X355600Y127000D03*
X355600Y50800D03*
X787400Y50800D03*
X736600Y50800D03*
X711200Y50800D03*
X685800Y50800D03*
X749300Y152400D03*
X723900Y152400D03*
X698500Y152400D03*
X673100Y152400D03*
X647700Y152400D03*
D11*
X438150Y177800D02*
X431800Y177800D01*
X438150Y177800D02*
X488950Y228600D01*
X530225Y228600D01*
X547688Y246063D01*
X547726Y244958D01*
X387350Y177800D02*
X381000Y177800D01*
X387350Y177800D02*
X431800Y222250D01*
X474663Y222250D01*
X484188Y231775D01*
X508000Y231775D01*
X522288Y246063D01*
X522326Y244958D01*
X336550Y177800D02*
X330200Y177800D01*
X336550Y177800D02*
X387350Y228600D01*
X454025Y228600D01*
X460375Y234950D01*
D15*
X460375Y234950D03*
D11*
X558800Y158750D02*
X558800Y25400D01*
X558800Y158750D02*
X571500Y171450D01*
X571500Y228600D01*
X560388Y239713D01*
X560388Y258763D01*
X549275Y269875D01*
X547726Y270358D01*
X812800Y107950D02*
X812800Y25400D01*
X812800Y107950D02*
X749300Y171450D01*
X749300Y431800D01*
X711200Y177800D02*
X704850Y177800D01*
X636588Y246063D01*
X600075Y246063D01*
X598526Y244958D01*
X565150Y288925D02*
X498475Y288925D01*
X484188Y274638D01*
X484188Y265113D01*
X476250Y257175D01*
X460375Y257175D01*
X447675Y244475D01*
X446126Y244958D01*
D15*
X565150Y288925D03*
D11*
X412750Y285750D02*
X304800Y177800D01*
X412750Y285750D02*
X455613Y285750D01*
X471488Y269875D01*
X471526Y270358D01*
X730250Y177800D02*
X736600Y177800D01*
X730250Y177800D02*
X636588Y271463D01*
X600075Y271463D01*
X598526Y270358D01*
X361950Y177800D02*
X355600Y177800D01*
X361950Y177800D02*
X409575Y225425D01*
X469900Y225425D01*
X484188Y239713D01*
X484188Y255588D01*
X498475Y269875D01*
X496926Y270358D01*
X234950Y177800D02*
X228600Y177800D01*
X234950Y177800D02*
X247650Y165100D01*
X311150Y165100D01*
X317500Y171450D01*
X317500Y184150D01*
X415925Y282575D01*
X433388Y282575D01*
X446088Y269875D01*
X446126Y270358D01*
X609600Y215900D02*
X609600Y177800D01*
X609600Y215900D02*
X585788Y239713D01*
X585788Y277813D01*
X422275Y441325D01*
X360363Y441325D01*
X344488Y457200D01*
X342900Y457200D01*
M02*
