M48
;GenerationSoftware,Autodesk,EAGLE,9.0.1*%
;CreationDate,2018-06-21T21:19:48Z*%
FMAT,2
ICI,OFF
METRIC,TZ,000.000
T4C0.350
T3C0.965
T2C1.016
T1C3.500
%
G90
M71
T1
X17000Y47000
X87000Y47000
X17000Y3000
X87000Y3000
T2
X80010Y43180
X80010Y45720
X59853Y27036
X59853Y24496
X57313Y27036
X57313Y24496
X54773Y27036
X54773Y24496
X52233Y27036
X52233Y24496
X49693Y27036
X49693Y24496
X47153Y27036
X47153Y24496
X44613Y27036
X44613Y24496
X42073Y27036
X42073Y24496
X20320Y40640
X22860Y40640
X20320Y38100
X22860Y38100
X20320Y35560
X22860Y35560
X20320Y33020
X22860Y33020
X20320Y30480
X22860Y30480
X20320Y27940
X22860Y27940
X20320Y25400
X22860Y25400
X20320Y22860
X22860Y22860
X26670Y45720
X29210Y45720
X31750Y45720
X34290Y45720
X36830Y45720
X39370Y45720
X41910Y45720
X44450Y45720
X62230Y43180
X62230Y45720
X64770Y43180
X64770Y45720
X67310Y43180
X67310Y45720
X69850Y43180
X69850Y45720
X72390Y43180
X72390Y45720
X74930Y43180
X74930Y45720
X77470Y43180
X77470Y45720
T3
X64770Y15240
X76200Y17780
X67310Y15240
X73660Y17780
X71120Y17780
X68580Y17780
X66040Y17780
X63500Y17780
X60960Y17780
X58420Y17780
X55880Y17780
X53340Y17780
X50800Y17780
X48260Y17780
X48260Y2540
X50800Y2540
X53340Y2540
X55880Y2540
X58420Y2540
X60960Y2540
X63500Y2540
X66040Y2540
X68580Y2540
X71120Y2540
X73660Y2540
X78740Y17780
X76200Y2540
X78740Y2540
X81280Y17780
X81280Y2540
X45720Y17780
X45720Y2540
X43180Y17780
X40640Y17780
X38100Y17780
X35560Y17780
X33020Y17780
X30480Y17780
X27940Y17780
X25400Y17780
X22860Y17780
X22860Y2540
X25400Y2540
X27940Y2540
X30480Y2540
X33020Y2540
X35560Y2540
X38100Y2540
X40640Y2540
X43180Y2540
X35560Y15240
X35560Y10160
X35560Y7620
X35560Y12700
X35560Y5080
X78740Y5080
X73660Y5080
X71120Y5080
X68580Y5080
X74930Y15240
X72390Y15240
X69850Y15240
T4
X56515Y28892
X46037Y23495
M30