G04 EAGLE Gerber X2 export*
%TF.Part,Single*%
%TF.FileFunction,Soldermask,Bot,1*%
%TF.FilePolarity,Negative*%
%TF.GenerationSoftware,Autodesk,EAGLE,9.0.1*%
%TF.CreationDate,2018-06-21T21:19:49Z*%
G75*
%MOMM*%
%FSLAX34Y34*%
%LPD*%
%AMOC8*
5,1,8,0,0,1.08239X$1,22.5*%
G01*
%ADD10C,3.703200*%
%ADD11C,2.082800*%
%ADD12P,2.254402X8X22.500000*%
%ADD13C,1.676400*%
%ADD14C,0.959600*%


D10*
X170000Y30000D03*
X870000Y30000D03*
X870000Y470000D03*
X170000Y470000D03*
D11*
X598526Y270358D03*
X598526Y244958D03*
X573126Y270358D03*
X573126Y244958D03*
X547726Y270358D03*
X547726Y244958D03*
X522326Y270358D03*
X522326Y244958D03*
X496926Y270358D03*
X496926Y244958D03*
X471526Y270358D03*
X471526Y244958D03*
X446126Y270358D03*
X446126Y244958D03*
X420726Y270358D03*
X420726Y244958D03*
X203200Y406400D03*
X228600Y406400D03*
X203200Y381000D03*
X228600Y381000D03*
X203200Y355600D03*
X228600Y355600D03*
X203200Y330200D03*
X228600Y330200D03*
X203200Y304800D03*
X228600Y304800D03*
X203200Y279400D03*
X228600Y279400D03*
X203200Y254000D03*
X228600Y254000D03*
X203200Y228600D03*
X228600Y228600D03*
X266700Y457200D03*
X292100Y457200D03*
X317500Y457200D03*
X342900Y457200D03*
X368300Y457200D03*
X393700Y457200D03*
X419100Y457200D03*
X444500Y457200D03*
D12*
X622300Y431800D03*
X622300Y457200D03*
X647700Y431800D03*
X647700Y457200D03*
X673100Y431800D03*
X673100Y457200D03*
X698500Y431800D03*
X698500Y457200D03*
X723900Y431800D03*
X723900Y457200D03*
X749300Y431800D03*
X749300Y457200D03*
X774700Y431800D03*
X774700Y457200D03*
X800100Y431800D03*
X800100Y457200D03*
D13*
X762000Y177800D03*
X736600Y177800D03*
X711200Y177800D03*
X685800Y177800D03*
X660400Y177800D03*
X635000Y177800D03*
X609600Y177800D03*
X584200Y177800D03*
X558800Y177800D03*
X533400Y177800D03*
X508000Y177800D03*
X482600Y177800D03*
X482600Y25400D03*
X508000Y25400D03*
X533400Y25400D03*
X558800Y25400D03*
X584200Y25400D03*
X609600Y25400D03*
X635000Y25400D03*
X660400Y25400D03*
X685800Y25400D03*
X711200Y25400D03*
X736600Y25400D03*
X787400Y177800D03*
X762000Y25400D03*
X787400Y25400D03*
X812800Y177800D03*
X812800Y25400D03*
X457200Y177800D03*
X457200Y25400D03*
X431800Y177800D03*
X406400Y177800D03*
X381000Y177800D03*
X355600Y177800D03*
X330200Y177800D03*
X304800Y177800D03*
X279400Y177800D03*
X254000Y177800D03*
X228600Y177800D03*
X228600Y25400D03*
X254000Y25400D03*
X279400Y25400D03*
X304800Y25400D03*
X330200Y25400D03*
X355600Y25400D03*
X381000Y25400D03*
X406400Y25400D03*
X431800Y25400D03*
X355600Y152400D03*
X355600Y101600D03*
X355600Y76200D03*
X355600Y127000D03*
X355600Y50800D03*
X787400Y50800D03*
X736600Y50800D03*
X711200Y50800D03*
X685800Y50800D03*
X749300Y152400D03*
X723900Y152400D03*
X698500Y152400D03*
X673100Y152400D03*
X647700Y152400D03*
D14*
X460375Y234950D03*
X565150Y288925D03*
M02*
